<svg width="568" height="136" viewBox="0 0 568 136" fill="none" xmlns="http://www.w3.org/2000/svg">
<path d="M110.505 91.3933L108.685 90.8472C98.8538 104.319 79.1923 127.623 66.2667 128.351L39.8692 129.808V66.9861H50.6103C60.6231 66.9861 69.5436 79.3661 76.8256 85.9202H78.6462V44.6043H76.837C69.555 51.5225 60.4524 62.8102 50.6216 62.8102H39.8579V3.45911L63.3425 5.09764C73.3553 6.00793 89.3758 25.8637 99.3886 35.6834L101.209 35.1373L94.4732 0H0V0.364112C5.15108 12.1151 7.63788 24.8605 7.28205 37.6861V95.5807C7.61924 108.405 5.13322 121.146 0 132.903V133.267H101.221L110.505 91.3933ZM156.018 134.541H163.129L189.163 72.4593C195.705 57.1664 199.904 51.8866 206.093 44.9684V44.6043H183.337V44.9684C186.25 48.7917 190.255 60.0793 184.429 73.7337L172.96 101.042L161.844 72.1065C157.292 60.8189 158.567 49.1672 161.844 44.9798V44.6157H116.513V44.9798C121.428 50.2595 124.523 56.4495 130.895 72.2886L156.018 134.541ZM253.962 44.9684C261.073 44.9684 265.624 52.2508 265.624 69.3643V76.2825L239.773 76.6466C239.762 60.0793 244.495 44.9684 253.962 44.9684ZM293.831 107.232L292.921 106.686C289.644 110.327 281.997 115.425 269.436 115.425C253.415 115.425 240.672 107.05 239.762 80.2878L294.013 80.4698C294.141 75.326 293.219 70.2101 291.303 65.4347C289.387 60.6592 286.518 56.3244 282.871 52.6952C279.224 49.0659 274.875 46.2183 270.09 44.3264C265.306 42.4344 260.185 41.5378 255.042 41.6914C229.726 41.6914 210.076 61.8885 210.076 90.483C210.076 115.971 226.825 135.998 254.314 135.998C275.079 135.998 288.915 124.346 293.831 107.232ZM350.437 132.903C347.111 122.687 345.631 111.96 346.068 101.224V64.2666C347.841 61.6173 350.218 59.4271 353.004 57.8762C355.789 56.3252 358.903 55.458 362.089 55.3458C370.827 55.3458 374.65 61.1716 374.65 68.8181V101.407C374.65 116.153 373.376 123.982 370.281 132.903V133.267H408.341V132.903C405.246 123.982 403.972 116.517 403.972 101.042V66.9861C403.972 51.5112 392.685 41.6686 376.664 41.6686C370.488 41.6793 364.421 43.2962 359.059 46.3604C353.697 49.4246 349.224 53.8307 346.079 59.1462L345.351 58.9642V40.7583L307.667 51.3405V51.7046C314.209 59.351 316.769 67.1796 316.769 80.6519L316.951 101.224C317.374 111.973 315.831 122.708 312.4 132.903V133.267H350.449L350.437 132.903ZM457.313 135.998C471.695 135.998 481.526 128.886 485.531 121.797L484.985 121.251C481.947 123.368 478.309 124.453 474.608 124.346C467.326 124.346 461.5 120.887 461.5 109.963V48.6096H483.164V44.6043H461.5V23.4855H459.509L421.995 46.9711V48.6096H432.19V110.692C432.19 128.897 442.567 135.998 457.313 135.998ZM559.432 44.9684C552.09 42.8841 544.49 41.8423 536.858 41.8734C516.662 41.8734 499.537 49.702 499.537 69.7284C499.537 88.8445 513.555 95.9448 526.117 101.589C537.95 106.868 547.599 111.056 547.599 120.887C547.599 126.895 544.14 132.721 534.673 132.721C522.476 132.721 511.553 122.343 499.719 104.502L498.081 104.866L500.641 130.354C510.068 134.159 520.15 136.077 530.315 135.998C550.887 135.998 568 127.987 568 107.414C568 88.8445 555.074 81.3801 542.331 75.7363C530.315 70.6387 518.482 66.9975 518.482 56.8022C518.482 49.6906 524.308 45.1391 531.772 45.1391C541.056 45.1391 548.703 52.2508 560.172 68.0785L561.81 67.7144L559.432 44.9684Z" fill="url(#paint0_linear_239_209)"/>
<defs>
<linearGradient id="paint0_linear_239_209" x1="-1.12874e-07" y1="76.976" x2="485.756" y2="283.908" gradientUnits="userSpaceOnUse">
<stop stop-color="#F2BC56"/>
<stop offset="0.498" stop-color="#E17979"/>
<stop offset="1" stop-color="#787EFA"/>
</linearGradient>
</defs>
</svg>
