<svg width="142" height="71" viewBox="0 0 142 71" fill="none" xmlns="http://www.w3.org/2000/svg">
<path d="M5.18612 37C5.18612 37.1533 5.18612 37.23 5.18612 37.23C5.06345 37.23 4.97145 37.1533 4.91012 37C4.48079 35.896 4.29679 34.7153 4.35812 33.458C4.41945 32.2007 4.63412 30.9127 5.00212 29.594C5.37012 28.2753 5.86079 26.9567 6.47412 25.638C7.11812 24.2887 7.80812 22.9853 8.54412 21.728C7.71612 21.176 7.02612 20.486 6.47412 19.658C5.95279 18.7993 5.49279 17.8947 5.09412 16.944C4.60345 15.8093 4.18945 14.6593 3.85212 13.494C3.51479 12.3287 3.19279 11.194 2.88612 10.09C2.57945 8.986 2.25745 7.94333 1.92012 6.962C1.58279 5.95 1.18412 5.04533 0.724121 4.248C0.724121 4.12533 0.739454 4.07933 0.770121 4.11C1.72079 4.78467 2.45679 5.61267 2.97812 6.594C3.53012 7.57533 3.97479 8.63333 4.31212 9.768C4.68012 10.9027 5.01745 12.0833 5.32412 13.31C5.63079 14.506 6.02945 15.656 6.52012 16.76C6.85745 17.5267 7.22545 18.2473 7.62412 18.922C8.05345 19.566 8.57479 20.1793 9.18812 20.762L9.78612 19.796C9.57145 19.52 9.40279 19.2747 9.28012 19.06C9.18812 18.8147 9.18812 18.6613 9.28012 18.6C9.34145 18.6 9.44879 18.6613 9.60212 18.784C9.75545 18.876 9.92412 19.0293 10.1081 19.244C10.4148 18.9067 10.6448 18.5693 10.7981 18.232C10.2461 17.22 9.75545 16.162 9.32612 15.058C8.92745 13.954 8.54412 12.8193 8.17612 11.654C7.86945 10.6727 7.54745 9.722 7.21012 8.802C6.87279 7.882 6.39745 6.88533 5.78412 5.812C5.75345 5.75067 5.70745 5.70467 5.64612 5.674C5.61545 5.61266 5.61545 5.56667 5.64612 5.536C5.70745 5.47466 5.81479 5.49 5.96812 5.582C6.61212 5.858 7.17945 6.37933 7.67012 7.146C8.19145 7.882 8.65145 8.69467 9.05012 9.584C9.44879 10.4733 9.78612 11.3627 10.0621 12.252C10.3688 13.1107 10.6141 13.8007 10.7981 14.322L11.7641 16.852C13.4815 14.3373 15.1221 11.884 16.6861 9.492C18.2808 7.1 19.4768 4.754 20.2741 2.454C20.3355 2.30066 20.3661 2.224 20.3661 2.224C20.4275 2.16267 20.4581 2.20867 20.4581 2.362C20.4888 2.48467 20.5041 2.56133 20.5041 2.592C20.3508 4.34 19.8908 6.05733 19.1241 7.744C18.3575 9.43067 17.4375 11.1173 16.3641 12.804C15.3215 14.46 14.1868 16.1313 12.9601 17.818C11.7335 19.5047 10.5988 21.2067 9.55612 22.924C8.88145 24.028 8.25279 25.1933 7.67012 26.42C7.08745 27.6467 6.58145 28.8887 6.15212 30.146C5.75345 31.3727 5.46212 32.584 5.27812 33.78C5.09412 34.9453 5.06345 36.0187 5.18612 37ZM14.2941 24.948C13.8341 25.684 13.3435 26.4507 12.8221 27.248C12.3008 28.0147 11.7641 28.766 11.2121 29.502C10.6908 30.238 10.1848 30.9433 9.69412 31.618C9.20345 32.2927 8.75879 32.906 8.36012 33.458C8.20679 33.6727 8.06879 33.8413 7.94612 33.964C7.82345 34.056 7.74679 34.0867 7.71612 34.056C7.65479 34.056 7.65479 33.964 7.71612 33.78C7.77746 33.596 7.83879 33.4273 7.90012 33.274C8.88145 30.7593 10.1081 28.3367 11.5801 26.006C13.0828 23.6753 14.6161 21.3293 16.1801 18.968C17.1308 17.496 18.0968 16.024 19.0781 14.552C20.0595 13.0493 20.9181 11.332 21.6541 9.4C21.7155 9.24667 21.7308 9.15467 21.7001 9.124C21.7001 9.09333 21.7308 9.078 21.7921 9.078C21.8535 9.10867 21.8841 9.17 21.8841 9.262C21.8841 9.354 21.8841 9.446 21.8841 9.538C21.8841 10.2127 21.7461 10.9793 21.4701 11.838C21.1941 12.6967 20.8261 13.6167 20.3661 14.598C19.9061 15.5487 19.4001 16.53 18.8481 17.542C18.2961 18.5233 17.7288 19.474 17.1461 20.394C16.5941 21.314 16.0575 22.1727 15.5361 22.97C15.0455 23.7367 14.6315 24.396 14.2941 24.948ZM18.6641 13.954C17.5908 15.61 16.4101 17.3273 15.1221 19.106C13.8341 20.8847 12.5615 22.5253 11.3041 24.028C11.2428 24.0893 11.1048 24.2427 10.8901 24.488C10.6755 24.7027 10.5221 24.7793 10.4301 24.718C10.3688 24.6567 10.3841 24.5033 10.4761 24.258C10.5988 23.982 10.6908 23.798 10.7521 23.706C10.9668 23.2767 11.2275 22.786 11.5341 22.234C11.8408 21.6513 12.1628 21.0687 12.5001 20.486C12.8375 19.9033 13.1748 19.336 13.5121 18.784C13.8801 18.232 14.2021 17.7567 14.4781 17.358C14.6008 17.174 14.8461 16.7907 15.2141 16.208C15.5821 15.5947 15.9961 14.8893 16.4561 14.092C16.9161 13.264 17.4068 12.3747 17.9281 11.424C18.4495 10.4733 18.9248 9.55333 19.3541 8.664C19.7835 7.744 20.1515 6.90067 20.4581 6.134C20.7648 5.33667 20.9335 4.708 20.9641 4.248C21.0255 3.94133 21.0715 3.788 21.1021 3.788C21.1635 3.788 21.2095 3.86466 21.2401 4.018C21.2708 4.14066 21.3015 4.23266 21.3321 4.294C21.4548 4.938 21.4548 5.68933 21.3321 6.548C21.2095 7.40667 21.0101 8.296 20.7341 9.216C20.4888 10.1053 20.1668 10.9793 19.7681 11.838C19.4001 12.666 19.0321 13.3713 18.6641 13.954ZM6.56612 8.71C6.90345 9.84467 7.22545 11.056 7.53212 12.344C7.86945 13.6013 8.14545 14.828 8.36012 16.024C8.39079 16.0853 8.39079 16.1927 8.36012 16.346C8.36012 16.4687 8.32945 16.5607 8.26812 16.622C8.20679 16.6527 8.11479 16.6067 7.99212 16.484C7.86945 16.3613 7.79279 16.2693 7.76212 16.208C7.60879 15.9933 7.44012 15.7173 7.25612 15.38C7.07212 15.0427 6.90345 14.69 6.75012 14.322C6.59679 13.954 6.44345 13.586 6.29012 13.218C6.16745 12.85 6.06012 12.528 5.96812 12.252C5.87612 11.9453 5.67679 11.424 5.37012 10.688C5.09412 9.92133 4.75679 9.124 4.35812 8.296C3.99012 7.468 3.59145 6.686 3.16212 5.95C2.76345 5.214 2.39545 4.708 2.05812 4.432C1.87412 4.248 1.81279 4.156 1.87412 4.156C1.90479 4.12533 1.96612 4.12533 2.05812 4.156C2.15012 4.18666 2.22679 4.21733 2.28812 4.248C2.77879 4.40133 3.25412 4.64667 3.71412 4.984C4.20479 5.32133 4.63412 5.70466 5.00212 6.134C5.40079 6.56333 5.72279 7.008 5.96812 7.468C6.24412 7.89733 6.44345 8.31133 6.56612 8.71ZM6.84212 34.608C6.71945 35.1907 6.62745 35.712 6.56612 36.172C6.53545 36.6013 6.52012 36.9847 6.52012 37.322C6.52012 37.3833 6.52012 37.46 6.52012 37.552C6.52012 37.644 6.47412 37.69 6.38212 37.69C6.32079 37.69 6.24412 37.644 6.15212 37.552C6.09079 37.4907 6.04479 37.414 6.01412 37.322C5.95279 37.1687 5.89145 37.0153 5.83012 36.862C5.76879 36.7087 5.72279 36.54 5.69212 36.356C5.66145 36.1413 5.66145 35.8807 5.69212 35.574C5.72279 35.2367 5.78412 34.8227 5.87612 34.332C5.96812 33.9333 6.10612 33.4427 6.29012 32.86C6.47412 32.2773 6.67345 31.7253 6.88812 31.204C7.10279 30.652 7.30212 30.2073 7.48612 29.87C7.70079 29.5327 7.86945 29.3947 7.99212 29.456C8.02279 29.4867 8.02279 29.594 7.99212 29.778C7.99212 29.962 7.96145 30.1767 7.90012 30.422C7.83879 30.6367 7.77746 30.8513 7.71612 31.066C7.65479 31.2807 7.60879 31.434 7.57812 31.526C7.42479 32.0473 7.28679 32.5687 7.16412 33.09C7.07212 33.5807 6.96479 34.0867 6.84212 34.608ZM33.6098 24.258C33.7018 23.43 33.7171 22.556 33.6558 21.636C33.5945 20.716 33.3951 19.8727 33.0578 19.106C32.7511 18.3087 32.2605 17.6493 31.5858 17.128C30.9418 16.6067 30.0831 16.346 29.0098 16.346C27.5685 16.346 26.3111 16.7447 25.2378 17.542C24.1645 18.3087 23.2445 19.2747 22.4778 20.44C21.7111 21.5747 21.1131 22.8013 20.6838 24.12C20.2545 25.408 19.9785 26.5887 19.8558 27.662C19.6718 29.134 19.6411 30.4067 19.7638 31.48C19.9171 32.5533 20.1778 33.4427 20.5458 34.148C20.9138 34.8227 21.3738 35.3287 21.9258 35.666C22.5085 36.0033 23.1371 36.172 23.8118 36.172C24.7625 36.2027 25.7591 35.942 26.8018 35.39C27.8751 34.8073 28.8718 34.01 29.7918 32.998C30.7118 31.9553 31.5091 30.698 32.1838 29.226C32.8891 27.7233 33.3645 26.0673 33.6098 24.258ZM18.7978 27.432C18.9205 26.2053 19.2271 24.856 19.7178 23.384C20.2085 21.912 20.8831 20.5473 21.7418 19.29C22.6311 18.0327 23.6891 16.99 24.9158 16.162C26.1425 15.3033 27.5685 14.874 29.1938 14.874C30.4205 14.874 31.4325 15.1653 32.2298 15.748C33.0271 16.3307 33.6405 17.082 34.0698 18.002C34.4991 18.8913 34.7751 19.8727 34.8978 20.946C35.0205 21.9887 35.0205 22.9853 34.8978 23.936C34.6218 26.144 34.0851 28.0607 33.2878 29.686C32.4905 31.3113 31.5551 32.676 30.4818 33.78C29.4085 34.8533 28.2738 35.666 27.0778 36.218C25.8818 36.7393 24.7318 37 23.6278 37C22.7998 37 22.0485 36.816 21.3738 36.448C20.7298 36.08 20.1778 35.5127 19.7178 34.746C19.2885 33.9487 18.9818 32.952 18.7978 31.756C18.6445 30.5293 18.6445 29.088 18.7978 27.432ZM23.9498 33.918C23.7965 33.918 23.6431 33.872 23.4898 33.78C23.3365 33.6573 23.2138 33.5193 23.1218 33.366C23.0298 33.2127 22.9685 33.0593 22.9378 32.906C22.9071 32.7527 22.9685 32.6453 23.1218 32.584C23.2138 32.5533 23.3365 32.6607 23.4898 32.906C23.6431 33.1513 23.8118 33.274 23.9958 33.274C24.3025 33.274 24.6551 33.0747 25.0538 32.676C25.4831 32.2773 25.8818 31.8173 26.2498 31.296C26.6485 30.744 26.9858 30.2073 27.2618 29.686C27.5685 29.1647 27.7831 28.7813 27.9058 28.536C28.0285 28.2907 28.1511 27.984 28.2738 27.616C28.3965 27.2173 28.5038 26.8187 28.5958 26.42C28.7185 26.0213 28.8105 25.638 28.8718 25.27C28.9638 24.8713 29.0251 24.534 29.0558 24.258C29.2091 22.878 29.1785 21.82 28.9638 21.084C28.7491 20.3173 28.3965 19.934 27.9058 19.934C27.5378 19.934 27.1545 20.0567 26.7558 20.302C26.3571 20.5167 25.9738 20.808 25.6058 21.176C25.2685 21.544 24.9618 21.958 24.6858 22.418C24.4098 22.8473 24.2105 23.292 24.0878 23.752C23.9345 24.2733 23.8271 24.534 23.7658 24.534C23.6738 24.534 23.6278 24.2733 23.6278 23.752C23.7198 23.1693 23.9191 22.602 24.2258 22.05C24.5325 21.4673 24.9158 20.9613 25.3758 20.532C25.8358 20.072 26.3418 19.704 26.8938 19.428C27.4458 19.1213 28.0131 18.968 28.5958 18.968C29.1785 18.968 29.6078 19.1827 29.8838 19.612C30.1905 20.0107 30.4051 20.5167 30.5278 21.13C30.6505 21.7127 30.6965 22.326 30.6658 22.97C30.6658 23.5833 30.6351 24.074 30.5738 24.442C30.4511 25.27 30.2518 26.0827 29.9758 26.88C29.7305 27.6467 29.4238 28.4287 29.0558 29.226C28.8718 29.594 28.5958 30.054 28.2278 30.606C27.8598 31.1273 27.4305 31.6333 26.9398 32.124C26.4798 32.6147 25.9738 33.044 25.4218 33.412C24.9005 33.7493 24.4098 33.918 23.9498 33.918ZM25.4218 34.792C25.4525 34.976 25.2991 35.1293 24.9618 35.252C24.6551 35.3747 24.3331 35.436 23.9958 35.436C23.0451 35.4053 22.3091 35.0987 21.7878 34.516C21.2971 33.9333 20.9445 33.2433 20.7298 32.446C20.5458 31.6487 20.4538 30.8207 20.4538 29.962C20.4845 29.1033 20.5305 28.3827 20.5918 27.8C20.7145 26.788 20.9598 25.6533 21.3278 24.396C21.6958 23.1387 22.2171 21.958 22.8918 20.854C23.5665 19.75 24.3945 18.83 25.3758 18.094C26.3571 17.3273 27.5225 16.944 28.8718 16.944C29.7611 16.944 30.4665 17.174 30.9878 17.634C31.5398 18.094 31.9385 18.6613 32.1838 19.336C32.4598 20.0107 32.6131 20.7467 32.6438 21.544C32.7051 22.3107 32.6898 23.016 32.5978 23.66C32.5365 24.3653 32.4291 25.0093 32.2758 25.592C32.1225 26.1747 31.9078 26.8187 31.6318 27.524C31.5398 27.7387 31.4171 27.984 31.2638 28.26C31.1105 28.536 30.9418 28.6587 30.7578 28.628C30.6658 28.5973 30.6351 28.4747 30.6658 28.26C30.7271 28.0453 30.7885 27.7847 30.8498 27.478C30.9418 27.1407 31.0338 26.8033 31.1258 26.466C31.2178 26.098 31.2791 25.7607 31.3098 25.454C31.3711 24.9327 31.4018 24.2887 31.4018 23.522C31.4325 22.7247 31.3711 21.958 31.2178 21.222C31.0951 20.486 30.8498 19.8573 30.4818 19.336C30.1138 18.8147 29.5618 18.554 28.8258 18.554C27.7525 18.554 26.7558 18.9067 25.8358 19.612C24.9465 20.2867 24.1645 21.13 23.4898 22.142C22.8151 23.1233 22.2631 24.166 21.8338 25.27C21.4351 26.3433 21.1898 27.294 21.0978 28.122C21.0365 28.6127 21.0211 29.226 21.0518 29.962C21.0825 30.698 21.1898 31.434 21.3738 32.17C21.5885 32.8753 21.9258 33.4887 22.3858 34.01C22.8458 34.5313 23.4745 34.8073 24.2718 34.838C24.5171 34.8687 24.7471 34.8533 24.9618 34.792C25.2071 34.7 25.3605 34.7 25.4218 34.792ZM51.1904 22.464C50.8224 23.5987 50.3778 24.6873 49.8564 25.73C49.3658 26.7727 48.8444 27.8153 48.2924 28.858C48.2311 28.9193 48.1391 29.0727 48.0164 29.318C47.8938 29.5327 47.7864 29.6093 47.6944 29.548C47.6331 29.548 47.6024 29.456 47.6024 29.272C47.6331 29.088 47.6484 28.95 47.6484 28.858C47.6791 28.6127 47.7404 28.26 47.8324 27.8C47.9551 27.34 48.0778 26.8647 48.2004 26.374C48.3538 25.8527 48.4918 25.362 48.6144 24.902C48.7678 24.4113 48.8904 24.028 48.9824 23.752C49.5038 22.096 49.8411 20.624 49.9944 19.336C50.1478 18.048 50.0558 16.9593 49.7184 16.07C49.6571 15.9167 49.6571 15.84 49.7184 15.84C49.7798 15.84 49.8411 15.8707 49.9024 15.932C49.9638 15.9933 50.0098 16.0393 50.0404 16.07C50.3778 16.438 50.6538 16.9133 50.8684 17.496C51.0831 18.048 51.2364 18.6307 51.3284 19.244C51.4204 19.8267 51.4511 20.4093 51.4204 20.992C51.3898 21.5747 51.3131 22.0653 51.1904 22.464ZM52.4324 19.152C52.8311 19.7653 53.0151 20.532 52.9844 21.452C52.9538 22.372 52.8311 23.3227 52.6164 24.304C52.4324 25.2853 52.1871 26.2207 51.8804 27.11C51.6044 27.9993 51.3898 28.7047 51.2364 29.226C50.9298 30.238 50.5618 31.2807 50.1324 32.354C49.7031 33.3967 49.3198 34.3013 48.9824 35.068C48.8598 35.344 48.7678 35.4667 48.7064 35.436C48.6144 35.4053 48.5531 35.344 48.5224 35.252C48.5224 35.1293 48.5224 35.0373 48.5224 34.976C48.5224 33.32 48.7524 31.7253 49.2124 30.192C49.7031 28.6587 50.2244 27.11 50.7764 25.546C51.1138 24.534 51.4204 23.5373 51.6964 22.556C51.9724 21.544 52.1104 20.44 52.1104 19.244C52.1104 19.0293 52.1411 18.922 52.2024 18.922C52.2331 18.922 52.2638 18.9527 52.2944 19.014C52.3251 19.0447 52.3711 19.0907 52.4324 19.152ZM43.2324 33.596C43.2938 33.688 43.1864 33.826 42.9104 34.01C42.6344 34.194 42.4504 34.3013 42.3584 34.332C41.0091 34.8227 39.9511 34.838 39.1844 34.378C38.4484 33.918 37.9118 33.228 37.5744 32.308C37.2678 31.388 37.1144 30.376 37.1144 29.272C37.1144 28.1373 37.1758 27.1253 37.2984 26.236C37.3904 25.4693 37.5591 24.626 37.8044 23.706C38.0804 22.7553 38.4024 21.8353 38.7704 20.946C39.1384 20.026 39.5524 19.1827 40.0124 18.416C40.5031 17.6187 41.0244 17.0053 41.5764 16.576C41.6378 16.5453 41.6991 16.4993 41.7604 16.438C41.8524 16.3767 41.9291 16.346 41.9904 16.346C42.0824 16.3767 42.0364 16.5453 41.8524 16.852C41.6684 17.1587 41.4384 17.588 41.1624 18.14C40.9171 18.692 40.6564 19.336 40.3804 20.072C40.1044 20.7773 39.8284 21.5287 39.5524 22.326C39.3071 23.1233 39.1078 23.9207 38.9544 24.718C38.8011 25.5153 38.6938 26.282 38.6324 27.018C38.5711 27.754 38.5404 28.4133 38.5404 28.996C38.5404 29.5787 38.5558 30.0693 38.5864 30.468C38.6171 30.8667 38.6478 31.1273 38.6784 31.25C38.8931 32.2007 39.2918 32.906 39.8744 33.366C40.4878 33.7953 41.3004 33.918 42.3124 33.734C42.3431 33.734 42.4964 33.7033 42.7724 33.642C43.0484 33.5807 43.2018 33.5653 43.2324 33.596ZM49.1664 37.138C49.2891 37.2607 49.3504 37.3527 49.3504 37.414C49.3504 37.4753 49.2738 37.4907 49.1204 37.46C48.9978 37.4293 48.9058 37.3987 48.8444 37.368C48.5991 37.2453 48.2924 37.0767 47.9244 36.862C47.5564 36.6167 47.2804 36.2027 47.0964 35.62C47.0044 35.3747 46.9431 35.0833 46.9124 34.746C46.8818 34.378 46.8664 34.0407 46.8664 33.734C46.8664 33.4273 46.8971 33.182 46.9584 32.998C47.0198 32.7833 47.0964 32.6913 47.1884 32.722C47.2498 32.7527 47.3111 32.8907 47.3724 33.136C47.4644 33.3813 47.5411 33.642 47.6024 33.918C47.6638 34.2553 47.7404 34.5773 47.8324 34.884C47.9244 35.16 48.0318 35.4513 48.1544 35.758C48.3078 36.0953 48.4611 36.3713 48.6144 36.586C48.7678 36.77 48.9518 36.954 49.1664 37.138ZM44.9344 34.608C44.5971 35.1293 44.0758 35.666 43.3704 36.218C42.6958 36.7393 41.7758 37 40.6104 37C39.6904 37 38.8931 36.7547 38.2184 36.264C37.5744 35.7733 37.0378 35.16 36.6084 34.424C36.2098 33.688 35.9184 32.8907 35.7344 32.032C35.5811 31.1427 35.5044 30.2993 35.5044 29.502C35.5351 28.5207 35.6118 27.5393 35.7344 26.558C35.8878 25.5767 36.0718 24.6567 36.2864 23.798C36.5318 22.9393 36.7924 22.1727 37.0684 21.498C37.3751 20.8233 37.6818 20.2713 37.9884 19.842C38.0498 19.8113 38.1111 19.75 38.1724 19.658C38.2644 19.5353 38.3411 19.5047 38.4024 19.566C38.4331 19.5967 38.4178 19.6733 38.3564 19.796C38.3258 19.888 38.2951 19.9647 38.2644 20.026C37.9884 20.946 37.7124 21.9273 37.4364 22.97C37.1911 23.982 36.9918 25.0093 36.8384 26.052C36.6851 27.0947 36.6084 28.122 36.6084 29.134C36.6084 30.146 36.7004 31.0813 36.8844 31.94C37.0071 32.5227 37.2218 33.0593 37.5284 33.55C37.8658 34.0407 38.2184 34.4547 38.5864 34.792C38.9851 35.1293 39.3991 35.3747 39.8284 35.528C40.2884 35.6813 40.7331 35.7273 41.1624 35.666C42.0518 35.5433 42.7264 35.298 43.1864 34.93C43.6464 34.5313 43.9684 34.0713 44.1524 33.55C44.3671 32.998 44.4898 32.4153 44.5204 31.802C44.5818 31.158 44.6584 30.514 44.7504 29.87C44.5971 30.2993 44.2904 30.7287 43.8304 31.158C43.4011 31.5567 42.9258 31.8787 42.4044 32.124C41.9138 32.3387 41.4231 32.4307 40.9324 32.4C40.4724 32.3693 40.1198 32.0933 39.8744 31.572C39.5678 30.8973 39.3991 30.1613 39.3684 29.364C39.3378 28.5667 39.3531 27.6927 39.4144 26.742C39.4758 25.7913 39.6138 24.81 39.8284 23.798C40.0431 22.786 40.3344 21.82 40.7024 20.9C41.0704 19.9493 41.4998 19.06 41.9904 18.232C42.5118 17.404 43.0944 16.668 43.7384 16.024L43.9224 15.84C44.0144 15.748 44.1064 15.702 44.1984 15.702C44.1984 15.702 44.1371 15.8553 44.0144 16.162C43.1251 17.818 42.3738 19.5353 41.7604 21.314C41.1471 23.062 40.7791 24.8407 40.6564 26.65C40.5031 28.6433 40.5951 29.9467 40.9324 30.56C41.3004 31.1733 41.7451 31.3573 42.2664 31.112C42.7878 30.836 43.3398 30.2687 43.9224 29.41C44.5358 28.5207 45.0264 27.57 45.3944 26.558C45.7318 25.638 46.0844 24.6873 46.4524 23.706C46.8511 22.7247 47.2038 21.7433 47.5104 20.762C47.8478 19.75 48.0931 18.7687 48.2464 17.818C48.4304 16.8673 48.4764 15.978 48.3844 15.15C48.3844 14.9967 48.4151 14.92 48.4764 14.92C48.5071 14.92 48.5224 14.9353 48.5224 14.966C48.5224 15.0273 48.5378 15.058 48.5684 15.058C48.5991 15.0887 48.6144 15.1193 48.6144 15.15C49.1051 16.1927 49.3198 17.2507 49.2584 18.324C49.2278 19.3973 49.0438 20.486 48.7064 21.59C48.3998 22.694 48.0164 23.8287 47.5564 24.994C47.1271 26.1287 46.7591 27.2787 46.4524 28.444C46.2684 29.18 46.1304 29.962 46.0384 30.79C45.9464 31.5873 45.9311 32.3847 45.9924 33.182C46.0538 33.9793 46.2224 34.746 46.4984 35.482C46.7744 36.1873 47.1731 36.7853 47.6944 37.276C47.7558 37.3373 47.7864 37.3833 47.7864 37.414C47.7864 37.4753 47.7404 37.4907 47.6484 37.46C47.5871 37.46 47.5258 37.4447 47.4644 37.414C46.8818 37.1993 46.3758 36.8467 45.9464 36.356C45.5171 35.8653 45.1798 35.2827 44.9344 34.608ZM67.2613 16.576C67.292 16.6067 67.3073 16.6833 67.3073 16.806C67.3073 16.898 67.292 16.9747 67.2613 17.036C66.9853 17.9253 66.51 18.554 65.8353 18.922C65.1607 19.29 64.5627 19.474 64.0413 19.474C63.3973 19.474 62.738 19.428 62.0633 19.336C61.3887 19.2133 60.7447 18.922 60.1313 18.462C60.07 18.4007 59.9933 18.3393 59.9013 18.278C59.8093 18.2167 59.7633 18.1553 59.7633 18.094C59.7633 18.002 59.8093 17.9407 59.9013 17.91C59.9933 17.8487 60.07 17.8027 60.1313 17.772C60.4073 17.7107 60.76 17.6647 61.1893 17.634C61.6493 17.5727 62.094 17.5727 62.5233 17.634C62.83 17.6953 63.198 17.726 63.6273 17.726C64.0567 17.726 64.486 17.6953 64.9153 17.634C65.3753 17.5727 65.7893 17.4807 66.1573 17.358C66.5253 17.2047 66.8013 16.99 66.9853 16.714C67.0773 16.5913 67.1693 16.5453 67.2613 16.576ZM67.5833 15.15L67.4453 15.38C66.924 16.0547 66.372 16.4993 65.7893 16.714C65.2067 16.898 64.5933 16.9747 63.9493 16.944C63.3053 16.9133 62.646 16.8367 61.9713 16.714C61.3273 16.5607 60.6833 16.4687 60.0393 16.438C59.1807 16.4073 58.322 16.668 57.4633 17.22C56.6047 17.772 55.8687 18.738 55.2553 20.118C55.1633 20.302 55.102 20.348 55.0713 20.256C55.0407 20.1333 55.0407 20.026 55.0713 19.934C55.3167 19.014 55.608 18.2473 55.9453 17.634C56.2827 17.0207 56.6353 16.53 57.0033 16.162C57.402 15.7633 57.816 15.472 58.2453 15.288C58.6747 15.104 59.1193 14.9813 59.5793 14.92C60.1007 13.172 60.4993 11.47 60.7753 9.814C61.082 8.12733 61.1127 6.53267 60.8673 5.03C60.8673 4.90733 60.8673 4.846 60.8673 4.846C60.9287 4.81533 60.99 4.83066 61.0513 4.892C61.1127 4.95333 61.1433 4.99933 61.1433 5.03C61.818 6.502 62.094 8.08133 61.9713 9.768C61.8487 11.424 61.542 13.172 61.0513 15.012C61.2047 15.0427 61.3273 15.058 61.4193 15.058C61.5113 15.058 61.6187 15.058 61.7413 15.058C61.8947 14.2607 62.0327 13.4173 62.1553 12.528C62.3087 11.608 62.416 10.734 62.4773 9.906C62.5693 9.078 62.6 8.32666 62.5693 7.652C62.5387 6.97733 62.4313 6.47133 62.2473 6.134C62.1553 5.858 62.1553 5.72 62.2473 5.72C62.3087 5.72 62.3547 5.75067 62.3853 5.812C62.416 5.87333 62.462 5.93466 62.5233 5.996C62.9527 6.42533 63.29 7.008 63.5353 7.744C63.7807 8.48 63.9493 9.262 64.0413 10.09C64.1333 10.918 64.164 11.746 64.1333 12.574C64.1027 13.3713 64.0107 14.0767 63.8573 14.69L63.6733 15.426C63.7653 15.4873 63.8573 15.518 63.9493 15.518C64.0413 15.518 64.1333 15.5333 64.2253 15.564C64.4093 14.644 64.5627 13.724 64.6853 12.804C64.8387 11.884 64.9 10.918 64.8693 9.906C64.8693 9.69133 64.8847 9.584 64.9153 9.584C64.9767 9.584 65.0227 9.63 65.0533 9.722C65.084 9.814 65.1147 9.89067 65.1453 9.952C65.5133 10.6267 65.682 11.47 65.6513 12.482C65.6513 13.494 65.5747 14.5673 65.4213 15.702C66.096 15.702 66.74 15.518 67.3533 15.15C67.5067 15.058 67.5833 15.058 67.5833 15.15ZM58.0613 18.278C58.0613 18.4313 57.9693 18.5847 57.7853 18.738C57.632 18.8913 57.5093 18.9987 57.4173 19.06C57.264 19.1827 57.08 19.336 56.8653 19.52C56.6813 19.6733 56.5127 19.842 56.3593 20.026C56.206 20.2713 56.0527 20.486 55.8993 20.67C55.7767 20.854 55.6693 21.1147 55.5773 21.452C55.5467 21.5133 55.5007 21.5747 55.4393 21.636C55.4087 21.6667 55.378 21.6667 55.3473 21.636C55.2553 21.544 55.2553 21.3447 55.3473 21.038C55.47 20.578 55.5927 20.21 55.7153 19.934C55.838 19.6273 56.068 19.3053 56.4053 18.968C56.528 18.8453 56.6813 18.7227 56.8653 18.6C57.0493 18.4773 57.2333 18.37 57.4173 18.278C57.6013 18.186 57.7547 18.14 57.8773 18.14C58 18.14 58.0613 18.186 58.0613 18.278ZM61.6493 36.77C61.8027 36.7087 61.864 36.724 61.8333 36.816C61.8027 36.908 61.7567 36.9693 61.6953 37C61.1433 37.184 60.5607 37.1533 59.9473 36.908C59.334 36.6627 58.7667 36.2793 58.2453 35.758C57.724 35.2367 57.2793 34.6387 56.9113 33.964C56.5433 33.2587 56.3133 32.5687 56.2213 31.894C56.068 30.4527 56.0527 29.0573 56.1753 27.708C56.298 26.3587 56.528 25.0247 56.8653 23.706L57.6473 20.808C57.4633 20.808 57.2793 20.762 57.0953 20.67C56.8807 20.6087 56.7733 20.532 56.7733 20.44C56.7733 20.3787 56.8807 20.2867 57.0953 20.164C57.954 19.7347 58.8127 19.5507 59.6713 19.612C60.5607 19.6733 61.45 19.7807 62.3393 19.934C62.8913 20.026 63.4433 20.1027 63.9953 20.164C64.578 20.1947 65.2067 20.072 65.8813 19.796C65.9427 19.7347 66.004 19.7193 66.0653 19.75C66.1267 19.8113 66.1113 19.9187 66.0193 20.072C65.8353 20.4707 65.5747 20.762 65.2373 20.946C64.9 21.13 64.5473 21.268 64.1793 21.36C63.934 22.1573 63.7193 22.878 63.5353 23.522C63.3513 24.1353 63.198 24.6567 63.0753 25.086C62.738 26.558 62.3393 28.0607 61.8793 29.594C61.45 31.0967 61.1587 32.3693 61.0053 33.412C60.944 33.7493 60.8827 33.9333 60.8213 33.964C60.76 33.9947 60.6987 33.9333 60.6373 33.78C60.576 33.6267 60.53 33.504 60.4993 33.412C60.3767 32.5227 60.346 31.6027 60.4073 30.652C60.4993 29.6707 60.6527 28.674 60.8673 27.662C61.082 26.65 61.3273 25.638 61.6033 24.626C61.8793 23.5833 62.1707 22.5407 62.4773 21.498C62.324 21.498 62.1707 21.498 62.0173 21.498C61.864 21.498 61.7107 21.4827 61.5573 21.452C61.312 22.096 61.0513 22.74 60.7753 23.384C60.53 23.9973 60.2847 24.58 60.0393 25.132C60.0087 25.1933 59.932 25.3467 59.8093 25.592C59.7173 25.8067 59.6407 25.914 59.5793 25.914C59.4567 25.8833 59.4107 25.7453 59.4413 25.5C59.472 25.224 59.4873 25.04 59.4873 24.948C59.5487 24.488 59.6407 23.9513 59.7633 23.338C59.9167 22.7247 60.0547 22.0653 60.1773 21.36C60.024 21.3293 59.8553 21.314 59.6713 21.314C59.4873 21.2833 59.3033 21.2373 59.1193 21.176C58.9353 21.7893 58.7513 22.3873 58.5673 22.97C58.414 23.5527 58.2607 24.1353 58.1073 24.718C57.862 25.7913 57.678 26.9413 57.5553 28.168C57.4327 29.364 57.4327 30.606 57.5553 31.894C57.6167 32.4767 57.77 33.0747 58.0153 33.688C58.2913 34.3013 58.6133 34.8533 58.9813 35.344C59.3493 35.8347 59.7633 36.218 60.2233 36.494C60.714 36.77 61.1893 36.862 61.6493 36.77ZM62.0633 35.758C62.2167 35.6353 62.3087 35.6353 62.3393 35.758C62.37 35.85 62.3087 35.942 62.1553 36.034C62.0327 36.126 61.864 36.2027 61.6493 36.264C61.4653 36.2947 61.2507 36.2947 61.0053 36.264C60.76 36.2333 60.4993 36.1413 60.2233 35.988C59.9473 35.8347 59.6867 35.5893 59.4413 35.252C59.2267 34.976 59.0427 34.5773 58.8893 34.056C58.7667 33.5347 58.6747 33.0287 58.6133 32.538C58.552 32.0167 58.5367 31.572 58.5673 31.204C58.598 30.836 58.6747 30.652 58.7973 30.652C58.9507 30.652 59.058 30.8667 59.1193 31.296C59.2113 31.7253 59.288 32.078 59.3493 32.354C59.472 32.8447 59.6407 33.3507 59.8553 33.872C60.07 34.3933 60.3 34.8073 60.5453 35.114C60.852 35.5127 61.128 35.758 61.3733 35.85C61.6187 35.9113 61.8487 35.8807 62.0633 35.758ZM74.7122 12.758C74.1909 14.5673 73.5929 16.4227 72.9182 18.324C72.2742 20.2253 71.5996 22.0193 70.8942 23.706C70.8636 23.798 70.7716 23.9667 70.6182 24.212C70.4956 24.4573 70.3882 24.5647 70.2962 24.534C70.2349 24.534 70.1889 24.396 70.1582 24.12C70.1582 23.8133 70.1736 23.5833 70.2042 23.43C70.2656 23.0313 70.3576 22.5407 70.4802 21.958C70.6029 21.3753 70.7256 20.7773 70.8482 20.164C71.0016 19.5507 71.1396 18.9527 71.2622 18.37C71.4156 17.7873 71.5689 17.2813 71.7222 16.852C71.7836 16.668 71.8909 16.2693 72.0442 15.656C72.1976 15.0427 72.3662 14.3067 72.5502 13.448C72.7342 12.5893 72.9182 11.6693 73.1022 10.688C73.3169 9.70667 73.4856 8.756 73.6082 7.836C73.7616 6.916 73.8689 6.07267 73.9302 5.306C73.9916 4.53933 73.9762 3.95666 73.8842 3.558C73.7922 3.25133 73.7922 3.098 73.8842 3.098C73.9456 3.098 73.9916 3.144 74.0222 3.236C74.0836 3.29733 74.1449 3.35866 74.2062 3.42C74.5129 3.972 74.7429 4.64667 74.8962 5.444C75.0802 6.24133 75.1876 7.06933 75.2182 7.928C75.2489 8.78667 75.2182 9.64533 75.1262 10.504C75.0342 11.3627 74.8962 12.114 74.7122 12.758ZM72.8722 2.132C73.2709 3.696 73.3629 5.33667 73.1482 7.054C72.9642 8.77133 72.6269 10.5193 72.1362 12.298C71.6456 14.0767 71.0936 15.886 70.4802 17.726C69.8669 19.5353 69.3456 21.36 68.9162 23.2C68.6402 24.3653 68.4102 25.5767 68.2262 26.834C68.0729 28.0607 67.9962 29.2873 67.9962 30.514C67.9962 31.71 68.0882 32.8753 68.2722 34.01C68.4869 35.114 68.8396 36.1107 69.3302 37C69.3916 37.1227 69.4069 37.2147 69.3762 37.276C69.3762 37.3373 69.2842 37.2453 69.1002 37C68.3029 36.08 67.7049 35.0373 67.3062 33.872C66.9382 32.7067 66.7236 31.48 66.6622 30.192C66.6009 28.904 66.6622 27.57 66.8462 26.19C67.0302 24.81 67.2909 23.4607 67.6282 22.142C68.0882 20.302 68.5942 18.4927 69.1462 16.714C69.7289 14.9353 70.2656 13.2027 70.7562 11.516C71.2776 9.82933 71.7069 8.204 72.0442 6.64C72.3816 5.04533 72.5502 3.512 72.5502 2.04C72.5502 1.88666 72.5656 1.81 72.5962 1.81C72.7189 1.81 72.8109 1.91733 72.8722 2.132ZM81.2442 37C80.1096 36.4787 79.2049 35.666 78.5302 34.562C77.8556 33.458 77.4416 32.1853 77.2882 30.744C77.1349 29.3333 77.1349 28.168 77.2882 27.248C77.4416 26.2973 77.6256 25.362 77.8402 24.442C77.8709 24.3193 77.9322 24.12 78.0242 23.844C78.1162 23.5373 78.1776 23.2307 78.2082 22.924C78.2696 22.6173 78.2696 22.3567 78.2082 22.142C78.1776 21.8967 78.0549 21.7433 77.8402 21.682C77.4109 21.59 76.9202 21.7893 76.3682 22.28C75.8162 22.74 75.2796 23.3227 74.7582 24.028C74.2676 24.7333 73.8076 25.4693 73.3782 26.236C72.9796 26.972 72.7189 27.5547 72.5962 27.984C72.3202 28.8733 72.0289 29.7167 71.7222 30.514C71.4156 31.3113 71.1396 32.1087 70.8942 32.906C70.8022 33.2433 70.7256 33.3967 70.6642 33.366C70.6029 33.366 70.5569 33.3047 70.5262 33.182C70.5262 33.0593 70.5262 32.9213 70.5262 32.768C70.5262 31.5413 70.6182 30.3147 70.8022 29.088C70.9862 27.8307 71.2316 26.5887 71.5382 25.362C71.8756 24.1353 72.2436 22.9087 72.6422 21.682C73.0409 20.4553 73.4242 19.2133 73.7922 17.956C74.2829 16.392 74.7429 14.7973 75.1722 13.172C75.6322 11.5467 75.9389 9.79867 76.0922 7.928C76.0922 7.77467 76.0922 7.698 76.0922 7.698C76.0922 7.66733 76.1076 7.652 76.1382 7.652C76.2302 7.652 76.3069 7.77467 76.3682 8.02C76.5216 8.41866 76.5829 8.986 76.5522 9.722C76.5522 10.4273 76.4909 11.2093 76.3682 12.068C76.2762 12.9267 76.1229 13.8007 75.9082 14.69C75.7242 15.5793 75.5249 16.3767 75.3102 17.082C75.8929 16.4687 76.5829 15.9933 77.3802 15.656C78.1776 15.3187 79.1282 15.2267 80.2322 15.38C81.4896 15.564 82.4556 16.024 83.1302 16.76C83.8049 17.4653 84.2649 18.324 84.5102 19.336C84.7556 20.348 84.8169 21.4367 84.6942 22.602C84.6022 23.7367 84.4182 24.8407 84.1422 25.914C83.8969 26.742 83.6669 27.478 83.4522 28.122C83.2376 28.7353 83.0229 29.3027 82.8082 29.824C82.5936 30.3453 82.4096 30.836 82.2562 31.296C82.1029 31.756 81.9802 32.2467 81.8882 32.768C81.8269 33.1053 81.7656 33.274 81.7042 33.274C81.6429 33.274 81.5816 33.2127 81.5202 33.09C81.4896 32.9673 81.4589 32.8447 81.4282 32.722C81.2442 32.0473 81.2289 31.2193 81.3822 30.238C81.5662 29.2567 81.7962 28.2293 82.0722 27.156C82.3482 26.052 82.5936 24.948 82.8082 23.844C83.0536 22.7093 83.1456 21.6667 83.0842 20.716C83.0536 19.7653 82.8082 18.9373 82.3482 18.232C81.8882 17.496 81.1062 16.99 80.0022 16.714C79.5422 16.5913 79.0362 16.5607 78.4842 16.622C77.9629 16.6527 77.4569 16.7753 76.9662 16.99C76.5062 17.174 76.0922 17.45 75.7242 17.818C75.3562 18.186 75.1109 18.6153 74.9882 19.106C75.5709 18.4927 76.3222 17.9867 77.2422 17.588C78.1622 17.1893 79.0516 17.128 79.9102 17.404C80.7076 17.6493 81.2749 18.094 81.6122 18.738C81.9496 19.382 82.1489 19.9493 82.2102 20.44C82.3329 21.5133 82.2562 22.4947 81.9802 23.384C81.7349 24.2427 81.4436 25.0707 81.1062 25.868C81.0449 25.96 80.9529 26.1133 80.8302 26.328C80.7076 26.512 80.6156 26.5887 80.5542 26.558C80.4929 26.558 80.4622 26.4353 80.4622 26.19C80.4622 25.9447 80.4776 25.7607 80.5082 25.638C80.6002 25.3313 80.6769 24.856 80.7382 24.212C80.7996 23.5373 80.8149 22.8473 80.7842 22.142C80.7842 21.4367 80.6922 20.7773 80.5082 20.164C80.3549 19.5507 80.0942 19.1367 79.7262 18.922C79.2969 18.6767 78.7756 18.6153 78.1622 18.738C77.5489 18.83 76.8896 19.198 76.1842 19.842C75.5709 20.394 75.0496 21.038 74.6202 21.774C74.1909 22.4793 73.8229 23.4147 73.5162 24.58C73.7002 24.2427 73.9916 23.7673 74.3902 23.154C74.7889 22.5407 75.2336 21.958 75.7242 21.406C76.2456 20.854 76.7822 20.4247 77.3342 20.118C77.9169 19.7807 78.4689 19.7347 78.9902 19.98C79.3276 20.164 79.5422 20.486 79.6342 20.946C79.7569 21.3753 79.7876 21.866 79.7262 22.418C79.6956 22.97 79.6189 23.5067 79.4962 24.028C79.3736 24.5493 79.2662 24.9633 79.1742 25.27C78.8369 26.19 78.6069 27.202 78.4842 28.306C78.3616 29.3793 78.3616 30.4373 78.4842 31.48C78.6376 32.5227 78.9442 33.504 79.4042 34.424C79.8642 35.344 80.5389 36.126 81.4282 36.77C81.7042 36.9233 81.7502 37 81.5662 37C81.4129 37 81.3056 37 81.2442 37ZM82.4402 36.632C82.0109 36.3867 81.5969 36.126 81.1982 35.85C80.8302 35.574 80.4622 35.0373 80.0942 34.24C79.9409 33.9333 79.8182 33.5193 79.7262 32.998C79.6649 32.4767 79.6189 31.986 79.5882 31.526C79.5882 31.0353 79.6189 30.6367 79.6802 30.33C79.7416 29.9927 79.8182 29.8393 79.9102 29.87C79.9716 29.87 80.0329 29.9467 80.0942 30.1C80.1556 30.2227 80.2016 30.376 80.2322 30.56C80.2629 30.744 80.2936 30.928 80.3242 31.112C80.3549 31.2653 80.3702 31.3727 80.3702 31.434C80.4929 32.1087 80.6002 32.6147 80.6922 32.952C80.7842 33.2587 80.9069 33.596 81.0602 33.964C81.3056 34.4547 81.5509 34.8993 81.7962 35.298C82.0416 35.6967 82.3482 36.0647 82.7162 36.402C82.8696 36.5247 82.9002 36.6167 82.8082 36.678C82.7469 36.7393 82.6242 36.724 82.4402 36.632ZM70.8022 37C70.8329 37 70.8022 37.0153 70.7102 37.046C70.6489 37.0767 70.5109 37.0613 70.2962 37C70.0509 36.8773 69.7902 36.6473 69.5142 36.31C69.2689 35.9727 69.0696 35.3133 68.9162 34.332C68.8549 33.9333 68.8242 33.458 68.8242 32.906C68.8242 32.3233 68.8396 31.7867 68.8702 31.296C68.9316 30.7747 69.0082 30.33 69.1002 29.962C69.1922 29.594 69.2996 29.4253 69.4222 29.456C69.4529 29.456 69.4836 29.548 69.5142 29.732C69.5449 29.916 69.5756 30.1307 69.6062 30.376C69.6369 30.5907 69.6522 30.8207 69.6522 31.066C69.6522 31.2807 69.6522 31.434 69.6522 31.526C69.6829 32.2007 69.7136 32.7067 69.7442 33.044C69.8056 33.3507 69.8822 33.78 69.9742 34.332C70.0662 34.9147 70.1736 35.4513 70.2962 35.942C70.4189 36.402 70.5876 36.7547 70.8022 37ZM101.972 18.922C101.972 18.9527 101.956 19.014 101.926 19.106C101.895 19.1673 101.864 19.2287 101.834 19.29C101.65 19.7193 101.389 20.0873 101.052 20.394C100.714 20.7007 100.362 20.9613 99.9936 21.176C99.6256 21.3907 99.2576 21.544 98.8896 21.636C98.5216 21.728 98.1996 21.7587 97.9236 21.728C97.0956 21.6667 96.2369 21.5287 95.3476 21.314C94.4582 21.0687 93.6149 20.7927 92.8176 20.486C92.7869 20.486 92.6949 20.44 92.5416 20.348C92.4189 20.256 92.3576 20.1793 92.3576 20.118C92.3576 20.0567 92.4036 20.0107 92.4956 19.98C92.5876 19.9493 92.6642 19.9187 92.7256 19.888C92.9096 19.8267 93.1549 19.7807 93.4616 19.75C93.7682 19.7193 94.0749 19.704 94.3816 19.704C94.7189 19.704 95.0409 19.7193 95.3476 19.75C95.6542 19.75 95.9149 19.7653 96.1296 19.796C96.6202 19.888 97.1416 19.9493 97.6936 19.98C98.2456 19.98 98.7822 19.9493 99.3036 19.888C99.8249 19.8267 100.3 19.7193 100.73 19.566C101.159 19.4127 101.496 19.198 101.742 18.922C101.895 18.7687 101.972 18.7687 101.972 18.922ZM102.34 17.542L102.202 17.726C101.65 18.4927 100.99 18.968 100.224 19.152C99.4876 19.336 98.7056 19.382 97.8776 19.29C97.0496 19.198 96.1909 19.0447 95.3016 18.83C94.4429 18.6153 93.5996 18.4927 92.7716 18.462C91.6982 18.4007 90.6096 18.646 89.5056 19.198C88.4016 19.7193 87.4509 20.67 86.6536 22.05C86.5922 22.2033 86.5309 22.2647 86.4696 22.234C86.4389 22.234 86.4236 22.188 86.4236 22.096C86.4542 21.9733 86.4849 21.8813 86.5156 21.82C86.8222 20.9 87.2056 20.1333 87.6656 19.52C88.1256 18.9067 88.6162 18.416 89.1376 18.048C89.6896 17.68 90.2416 17.4193 90.7936 17.266C91.3762 17.1127 91.9436 17.036 92.4956 17.036C94.0289 13.7853 95.8229 10.826 97.8776 8.158C99.9629 5.49 102.217 3.236 104.64 1.396C104.732 1.33467 104.808 1.27333 104.87 1.212C104.962 1.12 105.038 1.08933 105.1 1.12C105.161 1.12 105.146 1.19667 105.054 1.35C104.962 1.47267 104.9 1.54933 104.87 1.58C102.907 3.696 100.99 6.07267 99.1196 8.71C97.2796 11.3167 95.6236 14.1227 94.1516 17.128C94.2742 17.1893 94.3969 17.22 94.5196 17.22C94.6729 17.22 94.8109 17.2353 94.9336 17.266C95.2709 16.4993 95.6389 15.6867 96.0376 14.828C96.4669 13.9387 96.9422 13.0493 97.4636 12.16C97.9849 11.2093 98.5522 10.3047 99.1656 9.446C99.8096 8.55667 100.438 7.744 101.052 7.008C101.696 6.272 102.278 5.61266 102.8 5.03C103.321 4.44733 103.735 3.98733 104.042 3.65C104.164 3.52733 104.272 3.42 104.364 3.328C104.486 3.236 104.578 3.20533 104.64 3.236C104.701 3.26667 104.701 3.34333 104.64 3.466C104.578 3.58867 104.517 3.696 104.456 3.788C104.088 4.524 103.628 5.38267 103.076 6.364C102.554 7.31466 101.987 8.31133 101.374 9.354C100.791 10.366 100.208 11.3933 99.6256 12.436C99.0429 13.448 98.5216 14.368 98.0616 15.196C97.8469 15.5947 97.6169 15.9933 97.3716 16.392C97.1569 16.76 96.9576 17.1587 96.7736 17.588C96.9882 17.588 97.2182 17.634 97.4636 17.726C98.1382 16.346 98.8436 14.9967 99.5796 13.678C100.346 12.3287 101.174 10.9793 102.064 9.63C102.186 9.47667 102.248 9.38467 102.248 9.354C102.278 9.29267 102.324 9.29267 102.386 9.354C102.416 9.38467 102.401 9.52267 102.34 9.768C102.002 10.6573 101.496 11.838 100.822 13.31C100.178 14.782 99.5182 16.3153 98.8436 17.91C99.4569 17.9713 100.04 17.9713 100.592 17.91C101.144 17.8487 101.68 17.6953 102.202 17.45C102.232 17.45 102.263 17.45 102.294 17.45C102.324 17.4193 102.34 17.45 102.34 17.542ZM90.1036 20.256C90.1036 20.3787 89.9962 20.532 89.7816 20.716C89.5976 20.8693 89.4749 20.9613 89.4136 20.992L88.1256 21.866C87.8802 22.1113 87.6656 22.3413 87.4816 22.556C87.2976 22.7707 87.0982 23.0313 86.8836 23.338C86.8222 23.3993 86.7762 23.4607 86.7456 23.522C86.7456 23.5833 86.7149 23.614 86.6536 23.614C86.6229 23.614 86.6076 23.4913 86.6076 23.246C86.6076 23.1233 86.6229 23.0007 86.6536 22.878C86.8069 22.4487 86.9602 22.096 87.1136 21.82C87.2669 21.5133 87.5429 21.1913 87.9416 20.854C88.0949 20.7313 88.2942 20.6087 88.5396 20.486C88.7849 20.3633 89.0149 20.2713 89.2296 20.21C89.4749 20.118 89.6742 20.072 89.8276 20.072C90.0116 20.072 90.1036 20.1333 90.1036 20.256ZM91.6676 23.246C91.2382 24.4113 90.8856 25.5613 90.6096 26.696C90.3336 27.8307 90.0729 28.9807 89.8276 30.146C89.4902 31.8633 89.2449 33.6267 89.0916 35.436C88.9689 37.2147 88.9382 38.9627 88.9996 40.68C89.0916 42.428 89.2756 44.1147 89.5516 45.74C89.8582 47.3653 90.2722 48.868 90.7936 50.248C90.8549 50.4013 90.9009 50.524 90.9316 50.616C90.9929 50.7387 90.9929 50.8 90.9316 50.8C90.8396 50.8 90.7476 50.7387 90.6556 50.616C89.7969 49.2053 89.1222 47.6567 88.6316 45.97C88.1409 44.314 87.8189 42.5507 87.6656 40.68C87.5429 38.8093 87.5582 36.8773 87.7116 34.884C87.8956 32.8907 88.2022 30.882 88.6316 28.858C89.0302 26.834 89.5362 24.856 90.1496 22.924C89.9042 22.8627 89.6896 22.8167 89.5056 22.786C89.3216 22.7553 89.1376 22.7093 88.9536 22.648C88.8922 22.6173 88.8002 22.5867 88.6776 22.556C88.5549 22.4947 88.4936 22.4333 88.4936 22.372C88.4936 22.3107 88.5396 22.2647 88.6316 22.234C88.7236 22.2033 88.8002 22.1727 88.8616 22.142C89.9656 21.7433 91.0849 21.59 92.2196 21.682C93.3542 21.774 94.5042 21.9273 95.6696 22.142C96.3749 22.2647 97.0956 22.3567 97.8316 22.418C98.5982 22.4793 99.3802 22.3567 100.178 22.05C100.3 21.9887 100.362 21.9887 100.362 22.05C100.362 22.0807 100.3 22.188 100.178 22.372C99.8402 22.8933 99.3342 23.246 98.6596 23.43C98.0156 23.5833 97.3409 23.6753 96.6356 23.706C96.2062 24.994 95.8382 26.2053 95.5316 27.34C95.2556 28.4747 95.0409 29.4407 94.8876 30.238L92.1276 43.072C92.0662 43.348 92.0202 43.578 91.9896 43.762C91.9589 43.9767 91.9129 44.0533 91.8516 43.992C91.7596 44.0533 91.6982 43.946 91.6676 43.67C91.6676 43.4247 91.6676 43.1793 91.6676 42.934C91.6676 39.9593 91.9436 36.8313 92.4956 33.55C93.0782 30.238 93.9369 26.9413 95.0716 23.66C94.8876 23.5987 94.7189 23.568 94.5656 23.568C94.4429 23.568 94.3049 23.5527 94.1516 23.522C93.6916 24.718 93.2622 25.914 92.8636 27.11C92.4956 28.306 92.1276 29.4867 91.7596 30.652C91.7596 30.7133 91.7289 30.8207 91.6676 30.974C91.6369 31.0967 91.5909 31.2347 91.5296 31.388C91.4682 31.5413 91.3916 31.6793 91.2996 31.802C91.2382 31.894 91.1922 31.94 91.1616 31.94C91.1309 31.94 91.1156 31.8787 91.1156 31.756C91.1462 31.6333 91.1616 31.4953 91.1616 31.342C91.1922 31.158 91.2076 30.9893 91.2076 30.836C91.2382 30.652 91.2536 30.5293 91.2536 30.468C91.3149 29.6093 91.4836 28.536 91.7596 27.248C92.0356 25.9293 92.3422 24.6413 92.6796 23.384C92.3116 23.384 91.9742 23.338 91.6676 23.246ZM92.2196 50.616C92.1582 50.6467 92.0509 50.5853 91.8976 50.432C91.8362 50.3707 91.7902 50.3093 91.7596 50.248C91.5756 49.9413 91.4069 49.65 91.2536 49.374C91.1309 49.1287 91.0082 48.8373 90.8856 48.5C90.7629 48.1933 90.6402 47.81 90.5176 47.35C90.4256 46.89 90.3336 46.3073 90.2416 45.602C90.1496 45.0807 90.0882 44.406 90.0576 43.578C90.0269 42.7807 90.0116 41.9987 90.0116 41.232C90.0116 40.4653 90.0422 39.806 90.1036 39.254C90.1649 38.702 90.2416 38.426 90.3336 38.426C90.3949 38.426 90.4562 38.5333 90.5176 38.748C90.5789 38.9933 90.6249 39.2693 90.6556 39.576C90.6862 39.8827 90.7016 40.174 90.7016 40.45C90.7322 40.7567 90.7476 40.9713 90.7476 41.094L91.1616 45.326C91.2536 46.154 91.3916 46.9513 91.5756 47.718C91.7596 48.4847 91.9589 49.2513 92.1736 50.018C92.2042 50.1407 92.2196 50.2633 92.2196 50.386C92.2502 50.5393 92.2502 50.616 92.2196 50.616ZM113.538 18.232C113.784 18.5387 113.968 18.922 114.09 19.382C114.244 19.842 114.305 20.348 114.274 20.9C114.244 21.4213 114.121 21.9733 113.906 22.556C113.692 23.1387 113.354 23.706 112.894 24.258C112.005 25.3007 111.024 26.1133 109.95 26.696C108.908 27.248 107.957 27.524 107.098 27.524C106.577 27.524 106.577 27.432 107.098 27.248C107.374 27.156 107.696 27.018 108.064 26.834C108.463 26.6193 108.877 26.374 109.306 26.098C109.736 25.7913 110.165 25.4387 110.594 25.04C111.054 24.6413 111.468 24.1813 111.836 23.66C112.45 22.8013 112.802 21.9733 112.894 21.176C113.017 20.348 112.864 19.7193 112.434 19.29C112.066 18.922 111.637 18.7227 111.146 18.692C110.656 18.6307 109.92 18.8913 108.938 19.474C108.049 19.9953 107.252 20.6393 106.546 21.406C105.841 22.1727 105.182 22.9853 104.568 23.844C104.231 24.2733 104.001 24.488 103.878 24.488C103.786 24.488 103.832 24.212 104.016 23.66C104.384 22.5867 104.89 21.59 105.534 20.67C106.209 19.75 107.006 18.968 107.926 18.324C108.601 17.864 109.214 17.542 109.766 17.358C110.349 17.174 110.87 17.0973 111.33 17.128C111.821 17.1587 112.25 17.2813 112.618 17.496C112.986 17.68 113.293 17.9253 113.538 18.232ZM116.022 21.452C115.9 22.188 115.7 22.8167 115.424 23.338C115.179 23.8287 114.888 24.258 114.55 24.626C114.244 24.9633 113.922 25.2393 113.584 25.454C113.278 25.6687 113.002 25.868 112.756 26.052C112.634 26.144 112.542 26.1593 112.48 26.098C112.419 26.0367 112.465 25.9293 112.618 25.776C113.17 25.316 113.722 24.7027 114.274 23.936C114.857 23.1387 115.164 22.2647 115.194 21.314C115.194 19.6887 114.796 18.4467 113.998 17.588C113.201 16.7293 112.204 16.3613 111.008 16.484C109.812 16.576 108.57 17.036 107.282 17.864C106.454 18.3853 105.718 18.9987 105.074 19.704C104.461 20.3787 103.924 21.1147 103.464 21.912C103.004 22.6787 102.621 23.476 102.314 24.304C102.038 25.132 101.839 25.96 101.716 26.788C101.594 27.5853 101.471 28.444 101.348 29.364C101.256 30.284 101.256 31.1887 101.348 32.078C101.471 32.9673 101.762 33.826 102.222 34.654C102.682 35.4513 103.403 36.1413 104.384 36.724C104.538 36.816 104.691 36.8773 104.844 36.908C105.028 36.9387 105.12 36.9693 105.12 37C105.12 37.0613 105.044 37.092 104.89 37.092C104.737 37.1227 104.568 37.1073 104.384 37.046C103.618 36.8927 102.958 36.586 102.406 36.126C101.885 35.6353 101.456 35.0833 101.118 34.47C100.781 33.8567 100.52 33.2127 100.336 32.538C100.152 31.8633 100.045 31.25 100.014 30.698C99.8304 28.2753 100.168 25.8833 101.026 23.522C101.21 23.0313 101.44 22.4793 101.716 21.866C102.023 21.2527 102.391 20.6393 102.82 20.026C103.25 19.382 103.756 18.7687 104.338 18.186C104.921 17.5727 105.58 17.036 106.316 16.576C107.022 16.1467 107.758 15.8247 108.524 15.61C109.291 15.3953 110.058 15.3033 110.824 15.334C111.591 15.334 112.312 15.472 112.986 15.748C113.661 15.9933 114.259 16.3767 114.78 16.898C115.24 17.3887 115.593 18.0173 115.838 18.784C116.114 19.5507 116.176 20.44 116.022 21.452ZM111.836 19.796C112.204 20.2253 112.25 20.9 111.974 21.82C111.698 22.7093 111.054 23.614 110.042 24.534C109.49 25.0553 108.954 25.4847 108.432 25.822C107.911 26.1287 107.252 26.4047 106.454 26.65C106.117 27.8153 105.902 28.9653 105.81 30.1C105.718 31.2347 105.749 32.1547 105.902 32.86C105.933 33.136 106.025 33.412 106.178 33.688C106.362 33.9333 106.608 34.1327 106.914 34.286C107.252 34.4087 107.681 34.4547 108.202 34.424C108.724 34.3933 109.368 34.2247 110.134 33.918C110.349 33.826 110.472 33.8107 110.502 33.872C110.564 33.9027 110.472 33.9947 110.226 34.148C109.674 34.5773 109.092 34.884 108.478 35.068C107.865 35.2213 107.282 35.2673 106.73 35.206C106.209 35.1447 105.749 34.9607 105.35 34.654C104.982 34.3473 104.737 33.9333 104.614 33.412C104.369 32.3387 104.262 31.2193 104.292 30.054C104.323 28.8887 104.492 27.7387 104.798 26.604C105.136 25.4693 105.596 24.4113 106.178 23.43C106.792 22.418 107.543 21.5593 108.432 20.854C110.088 19.5353 111.223 19.1827 111.836 19.796ZM111.376 34.47C111.162 34.7767 110.886 35.0833 110.548 35.39C110.242 35.666 109.874 35.9267 109.444 36.172C109.046 36.3867 108.616 36.5707 108.156 36.724C107.727 36.8773 107.282 36.954 106.822 36.954C106.025 36.954 105.274 36.7853 104.568 36.448C103.894 36.08 103.372 35.3593 103.004 34.286C102.943 34.1633 102.912 34.056 102.912 33.964C102.912 33.8413 102.943 33.78 103.004 33.78C103.127 33.7187 103.25 33.7647 103.372 33.918C103.495 34.0407 103.618 34.1787 103.74 34.332C104.078 34.7307 104.507 35.0833 105.028 35.39C105.58 35.6967 106.102 35.85 106.592 35.85C107.512 35.85 108.31 35.712 108.984 35.436C109.659 35.16 110.303 34.792 110.916 34.332C111.07 34.24 111.238 34.148 111.422 34.056C111.637 33.964 111.622 34.102 111.376 34.47ZM110.732 21.038C110.61 20.7927 110.165 20.992 109.398 21.636C108.693 22.188 108.126 22.832 107.696 23.568C107.298 24.2733 106.945 25.0553 106.638 25.914C107.221 25.638 107.758 25.3313 108.248 24.994C108.739 24.626 109.199 24.2733 109.628 23.936C110.088 23.5373 110.426 23.016 110.64 22.372C110.855 21.728 110.886 21.2833 110.732 21.038ZM120.933 20.026C120.964 19.75 121.056 19.428 121.209 19.06C121.362 18.6613 121.562 18.2933 121.807 17.956C122.083 17.588 122.405 17.266 122.773 16.99C123.141 16.6833 123.555 16.484 124.015 16.392C124.996 16.208 125.809 16.2693 126.453 16.576C127.097 16.8827 127.588 17.2353 127.925 17.634C128.048 17.818 128.094 17.9253 128.063 17.956C128.002 18.0173 127.894 18.002 127.741 17.91C127.557 17.7873 127.25 17.68 126.821 17.588C126.422 17.496 125.978 17.4807 125.487 17.542C125.027 17.5727 124.567 17.7107 124.107 17.956C123.678 18.2013 123.325 18.6 123.049 19.152C122.804 19.6733 122.635 20.21 122.543 20.762C122.451 21.314 122.39 21.8353 122.359 22.326C122.359 22.786 122.374 23.1847 122.405 23.522C122.436 23.8593 122.451 24.0893 122.451 24.212C122.512 24.5493 122.558 24.9787 122.589 25.5C122.65 25.9907 122.681 26.4967 122.681 27.018C122.681 27.5393 122.666 28.0607 122.635 28.582C122.604 29.0727 122.543 29.502 122.451 29.87C122.42 29.962 122.374 30.1153 122.313 30.33C122.282 30.5447 122.236 30.652 122.175 30.652C122.022 30.652 121.945 30.5447 121.945 30.33C121.945 30.1153 121.945 29.962 121.945 29.87C121.884 29.1033 121.776 28.3367 121.623 27.57C121.47 26.7727 121.316 25.96 121.163 25.132C121.04 24.304 120.948 23.476 120.887 22.648C120.826 21.7893 120.841 20.9153 120.933 20.026ZM119.323 29.134C119.354 28.5207 119.292 27.662 119.139 26.558C119.016 25.4233 118.97 24.12 119.001 22.648C119.032 21.8813 119.108 21.0993 119.231 20.302C119.354 19.474 119.645 18.6613 120.105 17.864C120.596 17.0053 121.209 16.3767 121.945 15.978C122.712 15.5487 123.371 15.3493 123.923 15.38C124.015 15.38 124.107 15.38 124.199 15.38C124.291 15.38 124.337 15.3953 124.337 15.426C124.337 15.4873 124.322 15.518 124.291 15.518C124.26 15.4873 124.153 15.5027 123.969 15.564C123.417 15.7173 122.926 15.978 122.497 16.346C122.068 16.6833 121.7 17.082 121.393 17.542C121.086 18.002 120.841 18.4773 120.657 18.968C120.473 19.4587 120.366 19.9033 120.335 20.302C120.151 21.9887 120.166 23.4607 120.381 24.718C120.534 25.73 120.657 26.788 120.749 27.892C120.841 28.9653 120.795 29.962 120.611 30.882C120.458 31.7713 120.136 32.5227 119.645 33.136C119.185 33.7187 118.464 34.0407 117.483 34.102C117.391 34.102 117.268 34.102 117.115 34.102C116.992 34.0713 116.931 34.0253 116.931 33.964C116.931 33.9027 117.069 33.7953 117.345 33.642C118.142 33.274 118.664 32.7373 118.909 32.032C119.154 31.3267 119.292 30.3607 119.323 29.134ZM114.447 34.562C114.876 35.2367 115.551 35.7427 116.471 36.08C117.422 36.3867 118.541 36.356 119.829 35.988C120.473 35.804 121.04 35.482 121.531 35.022C122.022 34.562 122.42 34.056 122.727 33.504C123.064 32.9213 123.31 32.3233 123.463 31.71C123.647 31.0967 123.754 30.5293 123.785 30.008C123.816 29.1493 123.785 28.306 123.693 27.478C123.632 26.65 123.54 25.8527 123.417 25.086C123.325 24.2887 123.233 23.522 123.141 22.786C123.08 22.05 123.08 21.3293 123.141 20.624C123.202 19.8573 123.417 19.2747 123.785 18.876C124.153 18.4773 124.598 18.232 125.119 18.14C125.671 18.0173 126.238 18.048 126.821 18.232C127.404 18.416 127.94 18.7073 128.431 19.106C128.554 19.1673 128.6 19.244 128.569 19.336C128.569 19.3973 128.538 19.4127 128.477 19.382C128.416 19.3513 128.354 19.3207 128.293 19.29C127.158 18.922 126.269 18.8147 125.625 18.968C125.012 19.1213 124.674 19.6733 124.613 20.624C124.552 21.728 124.628 23.0313 124.843 24.534C125.088 26.006 125.18 27.6467 125.119 29.456C125.15 30.0693 125.073 30.7747 124.889 31.572C124.736 32.3693 124.46 33.1513 124.061 33.918C123.693 34.654 123.187 35.3133 122.543 35.896C121.93 36.4787 121.194 36.8467 120.335 37C118.71 37.2453 117.406 37.1533 116.425 36.724C115.474 36.2947 114.784 35.6353 114.355 34.746C114.294 34.562 114.263 34.4547 114.263 34.424H114.309C114.309 34.424 114.355 34.47 114.447 34.562ZM116.471 34.562C117.054 34.7153 117.759 34.7767 118.587 34.746C118.863 34.7153 119.2 34.6387 119.599 34.516C119.998 34.3933 120.212 34.3627 120.243 34.424C120.335 34.5467 120.243 34.7 119.967 34.884C119.691 35.068 119.338 35.2367 118.909 35.39C118.48 35.5127 118.035 35.6047 117.575 35.666C117.115 35.6967 116.732 35.6507 116.425 35.528C115.842 35.2827 115.428 35.022 115.183 34.746C114.907 34.4393 114.662 34.0713 114.447 33.642L114.355 33.458C114.294 33.3353 114.278 33.2587 114.309 33.228C114.34 33.1973 114.386 33.1973 114.447 33.228C114.478 33.2587 114.493 33.2893 114.493 33.32C114.861 33.6573 115.168 33.918 115.413 34.102C115.689 34.2553 116.042 34.4087 116.471 34.562ZM141.517 16.576C141.548 16.6067 141.563 16.6833 141.563 16.806C141.563 16.898 141.548 16.9747 141.517 17.036C141.241 17.9253 140.766 18.554 140.091 18.922C139.417 19.29 138.819 19.474 138.297 19.474C137.653 19.474 136.994 19.428 136.319 19.336C135.645 19.2133 135.001 18.922 134.387 18.462C134.326 18.4007 134.249 18.3393 134.157 18.278C134.065 18.2167 134.019 18.1553 134.019 18.094C134.019 18.002 134.065 17.9407 134.157 17.91C134.249 17.8487 134.326 17.8027 134.387 17.772C134.663 17.7107 135.016 17.6647 135.445 17.634C135.905 17.5727 136.35 17.5727 136.779 17.634C137.086 17.6953 137.454 17.726 137.883 17.726C138.313 17.726 138.742 17.6953 139.171 17.634C139.631 17.5727 140.045 17.4807 140.413 17.358C140.781 17.2047 141.057 16.99 141.241 16.714C141.333 16.5913 141.425 16.5453 141.517 16.576ZM141.839 15.15L141.701 15.38C141.18 16.0547 140.628 16.4993 140.045 16.714C139.463 16.898 138.849 16.9747 138.205 16.944C137.561 16.9133 136.902 16.8367 136.227 16.714C135.583 16.5607 134.939 16.4687 134.295 16.438C133.437 16.4073 132.578 16.668 131.719 17.22C130.861 17.772 130.125 18.738 129.511 20.118C129.419 20.302 129.358 20.348 129.327 20.256C129.297 20.1333 129.297 20.026 129.327 19.934C129.573 19.014 129.864 18.2473 130.201 17.634C130.539 17.0207 130.891 16.53 131.259 16.162C131.658 15.7633 132.072 15.472 132.501 15.288C132.931 15.104 133.375 14.9813 133.835 14.92C134.357 13.172 134.755 11.47 135.031 9.814C135.338 8.12733 135.369 6.53267 135.123 5.03C135.123 4.90733 135.123 4.846 135.123 4.846C135.185 4.81533 135.246 4.83066 135.307 4.892C135.369 4.95333 135.399 4.99933 135.399 5.03C136.074 6.502 136.35 8.08133 136.227 9.768C136.105 11.424 135.798 13.172 135.307 15.012C135.461 15.0427 135.583 15.058 135.675 15.058C135.767 15.058 135.875 15.058 135.997 15.058C136.151 14.2607 136.289 13.4173 136.411 12.528C136.565 11.608 136.672 10.734 136.733 9.906C136.825 9.078 136.856 8.32666 136.825 7.652C136.795 6.97733 136.687 6.47133 136.503 6.134C136.411 5.858 136.411 5.72 136.503 5.72C136.565 5.72 136.611 5.75067 136.641 5.812C136.672 5.87333 136.718 5.93466 136.779 5.996C137.209 6.42533 137.546 7.008 137.791 7.744C138.037 8.48 138.205 9.262 138.297 10.09C138.389 10.918 138.42 11.746 138.389 12.574C138.359 13.3713 138.267 14.0767 138.113 14.69L137.929 15.426C138.021 15.4873 138.113 15.518 138.205 15.518C138.297 15.518 138.389 15.5333 138.481 15.564C138.665 14.644 138.819 13.724 138.941 12.804C139.095 11.884 139.156 10.918 139.125 9.906C139.125 9.69133 139.141 9.584 139.171 9.584C139.233 9.584 139.279 9.63 139.309 9.722C139.34 9.814 139.371 9.89067 139.401 9.952C139.769 10.6267 139.938 11.47 139.907 12.482C139.907 13.494 139.831 14.5673 139.677 15.702C140.352 15.702 140.996 15.518 141.609 15.15C141.763 15.058 141.839 15.058 141.839 15.15ZM132.317 18.278C132.317 18.4313 132.225 18.5847 132.041 18.738C131.888 18.8913 131.765 18.9987 131.673 19.06C131.52 19.1827 131.336 19.336 131.121 19.52C130.937 19.6733 130.769 19.842 130.615 20.026C130.462 20.2713 130.309 20.486 130.155 20.67C130.033 20.854 129.925 21.1147 129.833 21.452C129.803 21.5133 129.757 21.5747 129.695 21.636C129.665 21.6667 129.634 21.6667 129.603 21.636C129.511 21.544 129.511 21.3447 129.603 21.038C129.726 20.578 129.849 20.21 129.971 19.934C130.094 19.6273 130.324 19.3053 130.661 18.968C130.784 18.8453 130.937 18.7227 131.121 18.6C131.305 18.4773 131.489 18.37 131.673 18.278C131.857 18.186 132.011 18.14 132.133 18.14C132.256 18.14 132.317 18.186 132.317 18.278ZM135.905 36.77C136.059 36.7087 136.12 36.724 136.089 36.816C136.059 36.908 136.013 36.9693 135.951 37C135.399 37.184 134.817 37.1533 134.203 36.908C133.59 36.6627 133.023 36.2793 132.501 35.758C131.98 35.2367 131.535 34.6387 131.167 33.964C130.799 33.2587 130.569 32.5687 130.477 31.894C130.324 30.4527 130.309 29.0573 130.431 27.708C130.554 26.3587 130.784 25.0247 131.121 23.706L131.903 20.808C131.719 20.808 131.535 20.762 131.351 20.67C131.137 20.6087 131.029 20.532 131.029 20.44C131.029 20.3787 131.137 20.2867 131.351 20.164C132.21 19.7347 133.069 19.5507 133.927 19.612C134.817 19.6733 135.706 19.7807 136.595 19.934C137.147 20.026 137.699 20.1027 138.251 20.164C138.834 20.1947 139.463 20.072 140.137 19.796C140.199 19.7347 140.26 19.7193 140.321 19.75C140.383 19.8113 140.367 19.9187 140.275 20.072C140.091 20.4707 139.831 20.762 139.493 20.946C139.156 21.13 138.803 21.268 138.435 21.36C138.19 22.1573 137.975 22.878 137.791 23.522C137.607 24.1353 137.454 24.6567 137.331 25.086C136.994 26.558 136.595 28.0607 136.135 29.594C135.706 31.0967 135.415 32.3693 135.261 33.412C135.2 33.7493 135.139 33.9333 135.077 33.964C135.016 33.9947 134.955 33.9333 134.893 33.78C134.832 33.6267 134.786 33.504 134.755 33.412C134.633 32.5227 134.602 31.6027 134.663 30.652C134.755 29.6707 134.909 28.674 135.123 27.662C135.338 26.65 135.583 25.638 135.859 24.626C136.135 23.5833 136.427 22.5407 136.733 21.498C136.58 21.498 136.427 21.498 136.273 21.498C136.12 21.498 135.967 21.4827 135.813 21.452C135.568 22.096 135.307 22.74 135.031 23.384C134.786 23.9973 134.541 24.58 134.295 25.132C134.265 25.1933 134.188 25.3467 134.065 25.592C133.973 25.8067 133.897 25.914 133.835 25.914C133.713 25.8833 133.667 25.7453 133.697 25.5C133.728 25.224 133.743 25.04 133.743 24.948C133.805 24.488 133.897 23.9513 134.019 23.338C134.173 22.7247 134.311 22.0653 134.433 21.36C134.28 21.3293 134.111 21.314 133.927 21.314C133.743 21.2833 133.559 21.2373 133.375 21.176C133.191 21.7893 133.007 22.3873 132.823 22.97C132.67 23.5527 132.517 24.1353 132.363 24.718C132.118 25.7913 131.934 26.9413 131.811 28.168C131.689 29.364 131.689 30.606 131.811 31.894C131.873 32.4767 132.026 33.0747 132.271 33.688C132.547 34.3013 132.869 34.8533 133.237 35.344C133.605 35.8347 134.019 36.218 134.479 36.494C134.97 36.77 135.445 36.862 135.905 36.77ZM136.319 35.758C136.473 35.6353 136.565 35.6353 136.595 35.758C136.626 35.85 136.565 35.942 136.411 36.034C136.289 36.126 136.12 36.2027 135.905 36.264C135.721 36.2947 135.507 36.2947 135.261 36.264C135.016 36.2333 134.755 36.1413 134.479 35.988C134.203 35.8347 133.943 35.5893 133.697 35.252C133.483 34.976 133.299 34.5773 133.145 34.056C133.023 33.5347 132.931 33.0287 132.869 32.538C132.808 32.0167 132.793 31.572 132.823 31.204C132.854 30.836 132.931 30.652 133.053 30.652C133.207 30.652 133.314 30.8667 133.375 31.296C133.467 31.7253 133.544 32.078 133.605 32.354C133.728 32.8447 133.897 33.3507 134.111 33.872C134.326 34.3933 134.556 34.8073 134.801 35.114C135.108 35.5127 135.384 35.758 135.629 35.85C135.875 35.9113 136.105 35.8807 136.319 35.758Z" fill="white"/>
<path d="M99.488 67L99.104 66.056L102.864 61.832C103.099 61.5653 103.349 61.256 103.616 60.904C103.883 60.5413 104.112 60.168 104.304 59.784C104.496 59.4 104.592 59.032 104.592 58.68C104.592 58.104 104.4 57.656 104.016 57.336C103.632 57.0053 103.131 56.84 102.512 56.84C101.979 56.84 101.451 57.032 100.928 57.416C100.416 57.7893 100.048 58.3867 99.824 59.208L98.816 58.6C99.0933 57.6293 99.5733 56.8933 100.256 56.392C100.949 55.8907 101.749 55.64 102.656 55.64C103.264 55.64 103.813 55.768 104.304 56.024C104.795 56.2693 105.184 56.6213 105.472 57.08C105.76 57.528 105.904 58.0453 105.904 58.632C105.904 59.2827 105.723 59.928 105.36 60.568C104.997 61.208 104.485 61.896 103.824 62.632L100.992 65.784H106.256V67H99.488ZM111.662 67.16C110.36 67.16 109.347 66.6533 108.622 65.64C107.896 64.616 107.534 63.2027 107.534 61.4C107.534 59.5867 107.896 58.1733 108.622 57.16C109.347 56.1467 110.36 55.64 111.662 55.64C112.952 55.64 113.96 56.1467 114.686 57.16C115.422 58.1733 115.79 59.5867 115.79 61.4C115.79 63.2027 115.422 64.616 114.686 65.64C113.96 66.6533 112.952 67.16 111.662 67.16ZM111.662 65.976C112.568 65.976 113.272 65.5813 113.774 64.792C114.275 63.992 114.526 62.8613 114.526 61.4C114.526 59.9387 114.275 58.8133 113.774 58.024C113.272 57.224 112.568 56.824 111.662 56.824C110.744 56.824 110.035 57.224 109.534 58.024C109.043 58.8133 108.798 59.9387 108.798 61.4C108.798 62.8613 109.043 63.992 109.534 64.792C110.035 65.5813 110.744 65.976 111.662 65.976ZM118.051 67L117.667 66.056L121.427 61.832C121.661 61.5653 121.912 61.256 122.179 60.904C122.445 60.5413 122.675 60.168 122.867 59.784C123.059 59.4 123.155 59.032 123.155 58.68C123.155 58.104 122.963 57.656 122.579 57.336C122.195 57.0053 121.693 56.84 121.075 56.84C120.541 56.84 120.013 57.032 119.491 57.416C118.979 57.7893 118.611 58.3867 118.387 59.208L117.379 58.6C117.656 57.6293 118.136 56.8933 118.819 56.392C119.512 55.8907 120.312 55.64 121.219 55.64C121.827 55.64 122.376 55.768 122.867 56.024C123.357 56.2693 123.747 56.6213 124.035 57.08C124.323 57.528 124.467 58.0453 124.467 58.632C124.467 59.2827 124.285 59.928 123.923 60.568C123.56 61.208 123.048 61.896 122.387 62.632L119.555 65.784H124.819V67H118.051ZM129.424 67.16C128.624 67.16 127.92 66.984 127.312 66.632C126.715 66.2693 126.16 65.656 125.648 64.792L126.688 64.136C127.115 64.8293 127.557 65.3147 128.016 65.592C128.485 65.8587 128.987 65.992 129.52 65.992C129.968 65.992 130.379 65.8853 130.752 65.672C131.125 65.448 131.419 65.1493 131.632 64.776C131.856 64.4027 131.968 63.9813 131.968 63.512C131.968 62.7973 131.749 62.216 131.312 61.768C130.875 61.32 130.309 61.096 129.616 61.096C129.349 61.096 129.056 61.144 128.736 61.24C128.427 61.336 128.075 61.5227 127.68 61.8L127.296 60.792L130.8 56.984H126.432V55.8H132.48L132.8 56.44L129.552 59.912C129.605 59.912 129.664 59.912 129.728 59.912C130.379 59.912 130.965 60.072 131.488 60.392C132.021 60.7013 132.443 61.1227 132.752 61.656C133.072 62.1893 133.232 62.7867 133.232 63.448C133.232 64.152 133.061 64.7867 132.72 65.352C132.379 65.9067 131.92 66.3493 131.344 66.68C130.779 67 130.139 67.16 129.424 67.16Z" fill="white"/>
</svg>
