<svg width="617" height="187" viewBox="0 0 617 187" fill="none" xmlns="http://www.w3.org/2000/svg">
<path opacity="0.12" d="M71.002 142.956L93.154 125.916C121.838 103.764 137.742 89.28 137.742 58.324C137.742 25.096 113.034 0.671994 69.582 0.671994C28.402 0.671994 0.00201842 25.664 0.00201842 64.004C0.00201842 69.4 1.13802 75.08 2.27402 80.76L49.418 82.18C48.282 78.488 47.43 74.228 47.43 67.412C47.43 52.928 53.11 41.568 67.878 41.568C82.078 41.568 87.19 50.088 87.19 61.164C87.19 78.204 78.102 87.576 50.838 109.444L1.42202 148.352V183H140.014V142.956H71.002ZM311.404 93.54C311.404 34.184 279.596 0.671994 230.464 0.671994C181.616 0.671994 149.524 34.184 149.524 93.54C149.524 152.896 181.616 186.408 230.464 186.408C279.596 186.408 311.404 152.896 311.404 93.54ZM260.568 93.54C260.568 130.46 252.332 147.5 230.464 147.5C208.88 147.5 200.644 130.46 200.644 93.54C200.644 56.62 208.88 39.58 230.464 39.58C252.332 39.58 260.568 56.62 260.568 93.54ZM394.662 142.956L416.814 125.916C445.498 103.764 461.402 89.28 461.402 58.324C461.402 25.096 436.694 0.671994 393.242 0.671994C352.062 0.671994 323.662 25.664 323.662 64.004C323.662 69.4 324.798 75.08 325.934 80.76L373.078 82.18C371.942 78.488 371.09 74.228 371.09 67.412C371.09 52.928 376.77 41.568 391.538 41.568C405.738 41.568 410.85 50.088 410.85 61.164C410.85 78.204 401.762 87.576 374.498 109.444L325.082 148.352V183H463.674V142.956H394.662ZM566.87 130.46C566.87 141.82 557.214 147.5 546.138 147.5C530.234 147.5 519.726 139.832 519.158 122.792L471.73 121.372C471.73 161.132 499.278 186.408 546.138 186.408C587.886 186.408 616.286 167.664 616.286 134.152C616.286 112.284 603.222 96.38 579.65 92.404C596.406 90.132 611.742 75.648 611.742 54.064C611.742 22.256 587.602 0.671994 545.286 0.671994C500.414 0.671994 474.002 30.208 474.002 67.128L520.294 69.116C520.294 52.36 528.246 39.58 543.866 39.58C557.214 39.58 564.03 47.248 564.03 59.176C564.03 71.672 554.09 77.92 543.582 77.92C539.038 77.92 532.79 77.92 529.95 77.352V111.716C534.778 111.148 539.606 111.148 543.014 111.148C556.646 111.148 566.87 117.396 566.87 130.46Z" fill="#E17979"/>
</svg>
