<svg width="280" height="64" viewBox="0 0 280 64" fill="none" xmlns="http://www.w3.org/2000/svg">
<path d="M45.4131 29.957C46.5924 28.9702 47.5409 27.7367 48.1918 26.3435C48.8426 24.9503 49.1799 23.4313 49.1799 21.8935C49.1799 20.3558 48.8426 18.8368 48.1918 17.4436C47.5409 16.0503 46.5924 14.8169 45.4131 13.83C45.6735 13.7044 45.9272 13.5652 46.1731 13.413C47.6844 12.4758 49.4187 11.9594 51.1966 11.9173C52.9744 11.8753 54.7312 12.3091 56.2851 13.1739C57.8391 14.0387 59.1337 15.303 60.035 16.8361C60.9362 18.3691 61.4115 20.1152 61.4115 21.8935C61.4115 23.6719 60.9362 25.4179 60.035 26.951C59.1337 28.484 57.8391 29.7484 56.2851 30.6132C54.7312 31.478 52.9744 31.9118 51.1966 31.8697C49.4187 31.8277 47.6844 31.3113 46.1731 30.374C45.9272 30.2219 45.6735 30.0827 45.4131 29.957Z" fill="white"/>
<path d="M42.644 23.464C43.1721 22.0197 43.3768 20.4771 43.2439 18.945C43.111 17.4129 42.6435 15.9287 41.8746 14.5969C41.1057 13.2651 40.054 12.1181 38.7936 11.237C37.5332 10.3558 36.0949 9.76189 34.58 9.49704C34.7426 9.2581 34.8925 9.01076 35.029 8.75604C35.8693 7.18874 37.1131 5.87445 38.6317 4.94916C40.1503 4.02388 41.8886 3.52122 43.6667 3.49321C45.4448 3.4652 47.1981 3.91285 48.7451 4.78984C50.2922 5.66683 51.5767 6.94129 52.4659 8.48134C53.3551 10.0214 53.8166 11.7711 53.8026 13.5493C53.7886 15.3276 53.2997 17.0698 52.3865 18.5957C51.4732 20.1216 50.1688 21.3757 48.6082 22.2283C47.0476 23.0809 45.2875 23.501 43.51 23.445C43.2212 23.4362 42.9322 23.4425 42.644 23.464Z" fill="white"/>
<path d="M36.995 19.227C36.7302 17.7122 36.1362 16.2739 35.2551 15.0135C34.3739 13.7531 33.227 12.7014 31.8952 11.9325C30.5634 11.1635 29.0792 10.6961 27.5471 10.5632C26.015 10.4302 24.4724 10.635 23.028 11.163C23.0497 10.8749 23.056 10.5858 23.047 10.297C22.9909 8.51956 23.4108 6.75939 24.2633 5.19867C25.1158 3.63795 26.3698 2.33339 27.8957 1.42C29.4216 0.506605 31.1638 0.017564 32.9421 0.00348657C34.7204 -0.0105908 36.4701 0.450807 38.0103 1.33993C39.5504 2.22905 40.825 3.51359 41.702 5.06062C42.5791 6.60765 43.0268 8.36095 42.9988 10.1391C42.9709 11.9172 42.4683 13.6556 41.543 15.1743C40.6177 16.693 39.3034 17.9368 37.736 18.777C37.4813 18.914 37.234 19.0642 36.995 19.227Z" fill="white"/>
<path d="M29.981 18.381C28.9942 17.2015 27.7607 16.2528 26.3674 15.6019C24.9741 14.951 23.4549 14.6136 21.917 14.6136C20.3792 14.6136 18.86 14.951 17.4667 15.6019C16.0734 16.2528 14.8399 17.2015 13.853 18.381C13.7275 18.1206 13.5883 17.8669 13.436 17.621C12.4988 16.1097 11.9824 14.3754 11.9403 12.5975C11.8983 10.8197 12.3321 9.06287 13.1969 7.50894C14.0617 5.95501 15.326 4.66041 16.8591 3.75912C18.3921 2.85783 20.1382 2.3826 21.9165 2.3826C23.6949 2.3826 25.441 2.85783 26.974 3.75912C28.507 4.66041 29.7714 5.95501 30.6362 7.50894C31.501 9.06287 31.9348 10.8197 31.8928 12.5975C31.8507 14.3754 31.3343 16.1097 30.397 17.621C30.2451 17.8668 30.1062 18.1205 29.981 18.381Z" fill="white"/>
<path d="M23.4921 21.152C22.0477 20.6236 20.5049 20.4186 18.9727 20.5514C17.4404 20.6841 15.9559 21.1515 14.6239 21.9205C13.292 22.6894 12.1449 23.7413 11.2638 25.0019C10.3826 26.2624 9.78871 27.701 9.52405 29.216C9.28512 29.0534 9.03777 28.9036 8.78305 28.767C7.21578 27.9266 5.90159 26.6825 4.97649 25.1637C4.05139 23.6448 3.549 21.9063 3.52131 20.1281C3.49361 18.3499 3.94163 16.5967 4.81898 15.0497C5.69633 13.5028 6.97114 12.2185 8.51148 11.3296C10.0518 10.4407 11.8017 9.97964 13.5801 9.99407C15.3584 10.0085 17.1006 10.4979 18.6263 11.4117C20.152 12.3254 21.4058 13.6303 22.258 15.1912C23.1101 16.7522 23.5296 18.5125 23.4731 20.29C23.4643 20.5775 23.4707 20.8652 23.4921 21.152Z" fill="white"/>
<path d="M19.252 26.8C17.7372 27.0649 16.2989 27.6588 15.0385 28.54C13.7781 29.4211 12.7264 30.5681 11.9575 31.8999C11.1886 33.2317 10.7211 34.7159 10.5882 36.248C10.4552 37.7801 10.66 39.3227 11.188 40.767C10.8999 40.7455 10.6108 40.7392 10.322 40.748C8.54461 40.804 6.78452 40.3839 5.22391 39.5313C3.6633 38.6787 2.35887 37.4246 1.44562 35.8987C0.532357 34.3728 0.0434477 32.6306 0.0294826 30.8523C0.0155175 29.0741 0.477003 27.3244 1.36618 25.7843C2.25537 24.2443 3.53994 22.9698 5.08696 22.0928C6.63399 21.2158 8.38727 20.7682 10.1654 20.7962C11.9435 20.8242 13.6818 21.3269 15.2004 22.2522C16.719 23.1774 17.9628 24.4917 18.803 26.059C18.9396 26.3137 19.0895 26.5611 19.252 26.8Z" fill="white"/>
<path d="M18.4041 33.81C17.2247 34.7968 16.2762 36.0303 15.6254 37.4236C14.9745 38.8168 14.6372 40.3358 14.6372 41.8735C14.6372 43.4113 14.9745 44.9303 15.6254 46.3235C16.2762 47.7167 17.2247 48.9502 18.4041 49.937C18.1436 50.0626 17.8899 50.2018 17.6441 50.354C16.1327 51.2913 14.3984 51.8077 12.6206 51.8497C10.8427 51.8918 9.08589 51.458 7.53196 50.5932C5.97804 49.7284 4.68344 48.464 3.78215 46.931C2.88086 45.3979 2.40562 43.6519 2.40562 41.8735C2.40562 40.0952 2.88086 38.3491 3.78215 36.8161C4.68344 35.283 5.97804 34.0187 7.53196 33.1539C9.08589 32.2891 10.8427 31.8553 12.6206 31.8973C14.3984 31.9394 16.1327 32.4557 17.6441 33.393C17.8899 33.5452 18.1436 33.6844 18.4041 33.81Z" fill="white"/>
<path d="M21.175 40.305C20.6474 41.7492 20.4429 43.2915 20.576 44.8233C20.7091 46.3551 21.1766 47.839 21.9455 49.1705C22.7144 50.502 23.766 51.6486 25.0262 52.5295C26.2864 53.4105 27.7245 54.0042 29.239 54.269C29.0765 54.508 28.9266 54.7553 28.79 55.01C27.9498 56.5773 26.706 57.8916 25.1874 58.8169C23.6688 59.7422 21.9305 60.2448 20.1524 60.2728C18.3743 60.3009 16.621 59.8532 15.074 58.9762C13.5269 58.0992 12.2424 56.8248 11.3532 55.2847C10.464 53.7447 10.0025 51.995 10.0165 50.2167C10.0304 48.4385 10.5194 46.6962 11.4326 45.1703C12.3459 43.6444 13.6503 42.3903 15.2109 41.5377C16.7715 40.6851 18.5316 40.2651 20.309 40.321C20.5978 40.3309 20.8869 40.3255 21.175 40.305Z" fill="white"/>
<path d="M26.8231 44.544C27.0877 46.0591 27.6814 47.4976 28.5625 48.7582C29.4435 50.0188 30.5904 51.0708 31.9222 51.8399C33.2541 52.6091 34.7384 53.0766 36.2706 53.2097C37.8028 53.3428 39.3456 53.1381 40.7901 52.61C40.7685 52.8982 40.7622 53.1872 40.7711 53.476C40.827 55.2535 40.4069 57.0136 39.5543 58.5742C38.7018 60.1348 37.4476 61.4392 35.9217 62.3525C34.3958 63.2657 32.6536 63.7546 30.8754 63.7686C29.0971 63.7826 27.3474 63.3211 25.8074 62.4319C24.2673 61.5427 22.9928 60.2582 22.1159 58.7111C21.2389 57.1641 20.7912 55.4108 20.8192 53.6327C20.8472 51.8546 21.3499 50.1163 22.2752 48.5977C23.2005 47.0791 24.5148 45.8353 26.0821 44.995C26.3368 44.8578 26.5841 44.7073 26.8231 44.544Z" fill="white"/>
<path d="M33.833 45.392C34.8199 46.5715 36.0534 47.5202 37.4467 48.1712C38.84 48.8221 40.3592 49.1595 41.897 49.1595C43.4349 49.1595 44.9541 48.8221 46.3474 48.1712C47.7407 47.5202 48.9742 46.5715 49.961 45.392C50.0865 45.6526 50.2257 45.9063 50.378 46.152C51.3153 47.6633 51.8317 49.3977 51.8738 51.1755C51.9158 52.9534 51.482 54.7102 50.6172 56.2641C49.7524 57.818 48.4881 59.1126 46.955 60.0139C45.422 60.9152 43.6759 61.3905 41.8975 61.3905C40.1192 61.3905 38.3731 60.9152 36.8401 60.0139C35.307 59.1126 34.0427 57.818 33.1779 56.2641C32.3131 54.7102 31.8793 52.9534 31.9213 51.1755C31.9634 49.3977 32.4798 47.6633 33.417 46.152C33.5691 45.9062 33.7079 45.6526 33.833 45.392Z" fill="white"/>
<path d="M40.3271 42.621C41.7714 43.1493 43.314 43.3542 44.8462 43.2213C46.3783 43.0884 47.8627 42.621 49.1945 41.8521C50.5264 41.0831 51.6733 40.0313 52.5544 38.7709C53.4355 37.5104 54.0294 36.072 54.2941 34.557C54.533 34.7196 54.7804 34.8695 55.0351 35.006C56.6024 35.8463 57.9166 37.0901 58.8419 38.6087C59.7672 40.1273 60.2699 41.8656 60.2979 43.6437C60.3259 45.4218 59.8782 47.1751 59.0013 48.7221C58.1243 50.2692 56.8498 51.5537 55.3098 52.4429C53.7697 53.3321 52.02 53.7936 50.2418 53.7796C48.4635 53.7656 46.7213 53.2767 45.1954 52.3635C43.6695 51.4502 42.4153 50.1458 41.5628 48.5852C40.7102 47.0246 40.2901 45.2645 40.3461 43.487C40.355 43.1982 40.3487 42.9092 40.3271 42.621Z" fill="white"/>
<path d="M51.867 31.863L51.861 31.874C51.0935 33.2069 50.0422 34.3546 48.7817 35.2359C47.5212 36.1173 46.0824 36.7107 44.567 36.974C44.7295 37.213 44.8794 37.4604 45.016 37.715C45.6999 38.9896 46.6527 40.1003 47.8083 40.9701C48.964 41.84 50.2949 42.4483 51.709 42.7528C53.123 43.0573 54.5863 43.0508 55.9976 42.7338C57.4088 42.4168 58.7343 41.7967 59.8822 40.9167C61.0301 40.0366 61.973 38.9176 62.6456 37.637C63.3182 36.3564 63.7044 34.945 63.7774 33.5004C63.8504 32.0558 63.6086 30.6126 63.0686 29.2707C62.5286 27.9288 61.7034 26.7204 60.65 25.729C59.9203 27.4804 58.7066 28.9876 57.151 30.0739C55.5955 31.1603 53.7626 31.7809 51.867 31.863Z" fill="white"/>
<path d="M87.1911 13.018V42.818H80.5861V13.018H87.1911ZM81.6331 42.818L81.7541 36.978H98.8711V42.818H81.6331ZM99.9071 32.712C99.862 30.7756 100.32 28.8606 101.236 27.154C102.096 25.5691 103.397 24.2678 104.982 23.408C106.717 22.4918 108.658 22.0344 110.62 22.079C112.57 22.0306 114.5 22.4885 116.22 23.408C117.805 24.2678 119.106 25.5691 119.966 27.154C120.882 28.8606 121.34 30.7756 121.295 32.712C121.34 34.6484 120.882 36.5634 119.966 38.27C119.097 39.8374 117.797 41.1231 116.22 41.975C114.5 42.8946 112.57 43.3525 110.62 43.304C108.658 43.3487 106.717 42.8912 104.982 41.975C103.405 41.1231 102.105 39.8374 101.236 38.27C100.32 36.5634 99.862 34.6484 99.9071 32.712ZM106.149 32.672C106.13 33.6032 106.323 34.5265 106.713 35.372C107.064 36.0957 107.608 36.7087 108.284 37.144C108.999 37.5402 109.803 37.7481 110.62 37.7481C111.437 37.7481 112.241 37.5402 112.956 37.144C113.627 36.7143 114.159 36.0986 114.486 35.372C114.876 34.5265 115.069 33.6032 115.05 32.672C115.072 31.7541 114.879 30.8438 114.486 30.014C114.165 29.2939 113.631 28.6894 112.956 28.282C112.25 27.8603 111.443 27.6376 110.62 27.6376C109.797 27.6376 108.99 27.8603 108.284 28.282C107.601 28.6937 107.053 29.2956 106.707 30.014C106.315 30.8441 106.124 31.7545 106.147 32.672H106.149ZM122.693 32.39C122.651 30.5022 123.08 28.6335 123.941 26.953C124.722 25.4496 125.908 24.1941 127.364 23.328C128.872 22.4264 130.602 21.9659 132.358 21.999C133.813 21.9687 135.253 22.301 136.547 22.966C137.659 23.482 138.547 24.3832 139.047 25.503L138.447 25.903L138.93 22.681H144.53V41.537C144.585 43.6593 144.115 45.7624 143.161 47.659C142.29 49.3611 140.929 50.7636 139.254 51.686C137.424 52.6665 135.369 53.1525 133.293 53.096C131.48 53.1233 129.686 52.7231 128.057 51.928C126.548 51.196 125.256 50.0839 124.307 48.701C123.347 47.2566 122.763 45.5954 122.607 43.868H128.89C128.891 44.3879 129.016 44.9001 129.254 45.3623C129.492 45.8244 129.836 46.2233 130.259 46.526C131.264 47.1774 132.446 47.5009 133.642 47.452C134.29 47.4931 134.939 47.3999 135.549 47.178C136.159 46.9562 136.716 46.6106 137.186 46.163C137.61 45.7198 137.94 45.1947 138.154 44.62C138.369 44.0452 138.464 43.4328 138.434 42.82V38.552L138.998 39.076C138.499 40.1959 137.61 41.0971 136.498 41.613C135.175 42.2779 133.71 42.6098 132.229 42.58C130.491 42.6102 128.778 42.1644 127.275 41.291C125.844 40.4239 124.675 39.1853 123.892 37.707C123.062 36.0599 122.65 34.234 122.691 32.39H122.693ZM128.976 32.229C128.958 33.125 129.164 34.0112 129.576 34.807C129.95 35.5275 130.505 36.1382 131.187 36.579C131.856 36.9796 132.623 37.1873 133.402 37.179C134.285 37.2004 135.159 36.9937 135.939 36.579C136.674 36.1665 137.275 35.5514 137.671 34.807C138.11 34.0197 138.332 33.1302 138.315 32.229C138.342 31.3397 138.119 30.4607 137.671 29.692C137.249 28.9746 136.635 28.389 135.899 28.001C135.119 27.5863 134.245 27.3796 133.362 27.401C132.583 27.3928 131.816 27.6005 131.147 28.001C130.469 28.4109 129.913 28.9947 129.536 29.692C129.146 30.4798 128.954 31.3504 128.974 32.229H128.976ZM146.733 32.712C146.688 30.7756 147.146 28.8606 148.062 27.154C148.922 25.5691 150.223 24.2678 151.808 23.408C153.543 22.4918 155.484 22.0344 157.446 22.079C159.396 22.0306 161.326 22.4885 163.046 23.408C164.631 24.2679 165.932 25.5692 166.791 27.154C167.707 28.8606 168.165 30.7756 168.12 32.712C168.165 34.6484 167.707 36.5634 166.791 38.27C165.922 39.8372 164.623 41.1229 163.046 41.975C161.326 42.8946 159.396 43.3524 157.446 43.304C155.484 43.3487 153.543 42.8912 151.808 41.975C150.231 41.1231 148.931 39.8374 148.062 38.27C147.145 36.5637 146.686 34.6487 146.73 32.712H146.733ZM152.975 32.672C152.956 33.6032 153.149 34.5265 153.539 35.372C153.89 36.0957 154.434 36.7088 155.11 37.144C155.825 37.5402 156.629 37.7481 157.446 37.7481C158.263 37.7481 159.067 37.5402 159.782 37.144C160.453 36.7143 160.985 36.0986 161.312 35.372C161.702 34.5265 161.895 33.6032 161.876 32.672C161.898 31.7541 161.705 30.8438 161.312 30.014C160.991 29.2939 160.457 28.6894 159.782 28.282C159.076 27.8603 158.269 27.6376 157.446 27.6376C156.623 27.6376 155.816 27.8603 155.11 28.282C154.429 28.6946 153.883 29.2964 153.539 30.014C153.145 30.8436 152.951 31.754 152.973 32.672H152.975ZM170.727 42.821V22.684H176.969V42.821H170.727ZM173.868 19.542C173.399 19.556 172.932 19.4739 172.495 19.3007C172.059 19.1276 171.663 18.867 171.331 18.5351C170.999 18.2032 170.739 17.8069 170.565 17.3706C170.392 16.9343 170.31 16.4672 170.324 15.998C170.312 15.5346 170.395 15.0737 170.569 14.6437C170.742 14.2137 171.001 13.8238 171.331 13.498C171.666 13.17 172.063 12.9121 172.498 12.7392C172.934 12.5663 173.399 12.4819 173.868 12.491C174.796 12.4926 175.685 12.8619 176.341 13.5179C176.997 14.1739 177.366 15.0633 177.368 15.991C177.376 16.463 177.287 16.9316 177.107 17.3679C176.927 17.8042 176.66 18.1991 176.321 18.528C176.003 18.8558 175.621 19.1149 175.199 19.2893C174.776 19.4637 174.323 19.5497 173.866 19.542H173.868ZM181.007 52.487V22.687H186.687L187.007 25.137C187.655 24.1266 188.597 23.3395 189.707 22.882C191.122 22.2623 192.66 21.9761 194.204 22.0454C195.747 22.1148 197.253 22.5379 198.607 23.282C200.025 24.1396 201.17 25.383 201.907 26.867C202.759 28.5958 203.2 30.4978 203.196 32.425C203.281 34.373 202.923 36.3149 202.148 38.104C201.451 39.6771 200.319 41.0184 198.885 41.97C197.345 42.9429 195.55 43.4339 193.73 43.38C192.394 43.3911 191.068 43.1449 189.824 42.655C188.777 42.2853 187.846 41.6461 187.124 40.802V52.487H181.007ZM187.249 32.752C187.231 33.6736 187.437 34.5857 187.849 35.41C188.26 36.1429 188.858 36.7541 189.581 37.182C190.377 37.594 191.262 37.8003 192.158 37.782C193.048 37.8094 193.927 37.5863 194.696 37.138C195.408 36.7223 195.983 36.106 196.347 35.366C196.745 34.5507 196.952 33.6553 196.952 32.748C196.952 31.8407 196.745 30.9453 196.347 30.13C195.983 29.3901 195.408 28.7738 194.696 28.358C193.927 27.9098 193.048 27.6866 192.158 27.714C191.257 27.6973 190.368 27.9195 189.581 28.358C188.854 28.763 188.254 29.3628 187.849 30.09C187.429 30.9131 187.222 31.8283 187.246 32.752H187.249ZM204.262 36.457H209.862C209.847 36.7657 209.9 37.074 210.018 37.3595C210.137 37.645 210.317 37.9007 210.546 38.108C211.152 38.5473 211.893 38.7597 212.639 38.708C213.091 38.7221 213.541 38.6544 213.969 38.508C214.299 38.4054 214.593 38.2096 214.814 37.944C215.022 37.6957 215.137 37.3821 215.137 37.058C215.141 36.8935 215.111 36.7299 215.049 36.5775C214.987 36.4251 214.894 36.2871 214.776 36.172C214.462 35.8787 214.07 35.6827 213.647 35.608L210.104 34.682C208.479 34.3567 206.998 33.5249 205.875 32.306C205.054 31.2929 204.612 30.025 204.626 28.721C204.598 27.4791 204.949 26.2581 205.633 25.221C206.337 24.1956 207.313 23.3866 208.451 22.885C209.7 22.3065 211.063 22.0173 212.439 22.039C214.431 21.9576 216.383 22.6178 217.917 23.892C218.639 24.4994 219.22 25.2577 219.617 26.1137C220.014 26.9696 220.219 27.9023 220.217 28.846H214.617C214.647 28.5435 214.608 28.2382 214.504 27.9524C214.401 27.6667 214.234 27.4079 214.017 27.195C213.794 26.9783 213.529 26.8095 213.238 26.6988C212.947 26.588 212.637 26.5378 212.326 26.551C211.775 26.5292 211.234 26.7 210.795 27.034C210.609 27.1823 210.46 27.3729 210.362 27.5899C210.264 27.8069 210.219 28.0442 210.231 28.282C210.216 28.5032 210.261 28.7244 210.36 28.9227C210.459 29.121 210.609 29.2893 210.795 29.41C211.278 29.6652 211.793 29.8549 212.326 29.974L215.91 30.86C217.353 31.1394 218.676 31.8566 219.697 32.914C220.578 33.9424 221.038 35.2659 220.984 36.619C221.02 37.5614 220.831 38.4988 220.432 39.3533C220.033 40.2078 219.436 40.9547 218.69 41.532C216.906 42.7273 214.804 43.3588 212.657 43.3446C210.509 43.3303 208.416 42.6709 206.648 41.452C205.914 40.8405 205.321 40.0777 204.908 39.2159C204.496 38.354 204.275 37.4133 204.259 36.458L204.262 36.457ZM230.873 43.344C229.853 43.4047 228.832 43.2374 227.884 42.8543C226.937 42.4711 226.086 41.8818 225.395 41.129C224.054 39.5019 223.366 37.4351 223.462 35.329V22.684H229.662V33.075C229.662 34.9544 229.998 36.2164 230.669 36.861C231.026 37.1897 231.445 37.4444 231.901 37.6104C232.358 37.7764 232.842 37.8503 233.327 37.828C233.879 37.8928 234.439 37.8159 234.953 37.6046C235.468 37.3933 235.92 37.0544 236.267 36.62C236.866 35.5681 237.146 34.3645 237.073 33.156V22.684H243.273V42.821H237.434L237.034 40.566C236.349 41.4509 235.448 42.1445 234.417 42.58C233.303 43.0871 232.094 43.3481 230.87 43.345L230.873 43.344ZM253.516 42.82H247.273V22.684H253.073L253.516 26.148L252.832 25.423C253.383 24.3879 254.222 23.5346 255.248 22.966C256.321 22.3292 257.546 21.995 258.793 21.999C260.359 21.8712 261.922 22.2802 263.224 23.1585C264.527 24.0369 265.492 25.3324 265.96 26.832H264.994C265.299 25.4106 266.135 24.159 267.331 23.332C268.628 22.4271 270.18 21.9613 271.761 22.003C274.365 22.003 276.285 22.701 277.521 24.097C278.811 25.6531 279.472 27.636 279.373 29.655V42.825H273.333V31.182C273.373 30.6741 273.312 30.1631 273.153 29.6791C272.994 29.1951 272.739 28.7477 272.405 28.363C272.096 28.0506 271.725 27.8067 271.316 27.6472C270.906 27.4876 270.468 27.416 270.029 27.437C269.442 27.4356 268.862 27.5726 268.338 27.837C267.759 28.1193 267.291 28.5871 267.008 29.166C266.614 29.9943 266.434 30.9081 266.484 31.824V42.824H260.363V31.182C260.406 30.6834 260.35 30.1811 260.198 29.7042C260.046 29.2273 259.801 28.7851 259.478 28.403C259.169 28.0908 258.797 27.8471 258.388 27.6876C257.978 27.5281 257.54 27.4563 257.101 27.477C256.501 27.4784 255.909 27.6151 255.369 27.877C254.791 28.1594 254.323 28.6273 254.041 29.206C253.649 30.0208 253.469 30.9212 253.517 31.824L253.516 42.82Z" fill="#DCE9F4"/>
</svg>
