<svg width="270" height="64" viewBox="0 0 270 64" fill="none" xmlns="http://www.w3.org/2000/svg">
<path d="M81.588 44.639H100.643V38.904H88.36V17.282H81.588V44.639Z" fill="white"/>
<path d="M111.932 40.813C109.215 40.813 107.8 38.441 107.8 34.882C107.8 31.323 109.216 28.913 111.932 28.913C114.648 28.913 116.103 31.324 116.103 34.882C116.103 38.44 114.645 40.813 111.932 40.813ZM111.97 45.251C113.353 45.3161 114.733 45.0931 116.025 44.5961C117.317 44.0991 118.491 43.3389 119.473 42.3639C120.456 41.3889 121.225 40.2202 121.731 38.9322C122.238 37.6442 122.471 36.265 122.416 34.882C122.471 33.4991 122.238 32.1198 121.731 30.8318C121.225 29.5438 120.456 28.3752 119.473 27.4001C118.491 26.4251 117.317 25.6649 116.025 25.1679C114.733 24.6709 113.353 24.4479 111.97 24.513C110.586 24.4505 109.205 24.6751 107.912 25.1725C106.62 25.67 105.444 26.4296 104.459 27.4035C103.474 28.3775 102.702 29.5447 102.19 30.8317C101.679 32.1188 101.439 33.4978 101.486 34.882C101.439 36.2662 101.679 37.6453 102.19 38.9323C102.702 40.2193 103.474 41.3866 104.459 42.3605C105.444 43.3344 106.62 44.094 107.912 44.5915C109.205 45.089 110.586 45.3135 111.97 45.251Z" fill="white"/>
<path d="M133.343 51.412C136.251 51.412 138.814 50.762 140.536 49.231C141.411 48.3983 142.097 47.3865 142.545 46.2648C142.994 45.143 143.196 43.9377 143.136 42.731V25.049H137.169V27.149H137.097C136.483 26.2696 135.655 25.5618 134.69 25.0931C133.726 24.6243 132.658 24.4102 131.587 24.471C126.728 24.471 123.361 28.527 123.361 34.271C123.361 40.278 127.455 43.571 131.855 43.571C132.807 43.6019 133.754 43.4146 134.623 43.0234C135.491 42.6322 136.259 42.0475 136.867 41.314H137.02V43.265C137.02 45.637 135.91 47.015 133.27 47.015C131.204 47.015 130.17 46.135 129.826 45.102H123.778C124.39 49.192 127.948 51.412 133.343 51.412ZM133.305 38.939C130.971 38.939 129.441 37.026 129.441 34.08C129.441 31.096 130.971 29.18 133.305 29.18C135.905 29.18 137.284 31.399 137.284 34.039C137.284 36.795 136.021 38.938 133.305 38.938V38.939Z" fill="white"/>
<path d="M155.412 40.813C152.695 40.813 151.28 38.441 151.28 34.882C151.28 31.323 152.696 28.913 155.412 28.913C158.128 28.913 159.583 31.324 159.583 34.882C159.583 38.44 158.128 40.813 155.412 40.813ZM155.45 45.251C156.832 45.3162 158.213 45.0931 159.505 44.5961C160.797 44.0991 161.971 43.3389 162.953 42.3639C163.936 41.3889 164.705 40.2202 165.211 38.9322C165.718 37.6442 165.951 36.265 165.896 34.882C165.869 32.1244 164.755 29.4888 162.795 27.5484C160.836 25.6079 158.189 24.5193 155.431 24.5193C152.674 24.5193 150.027 25.6079 148.068 27.5484C146.108 29.4888 144.994 32.1244 144.967 34.882C144.92 36.2663 145.16 37.6454 145.671 38.9325C146.183 40.2197 146.956 41.3869 147.941 42.3609C148.925 43.3348 150.101 44.0944 151.394 44.5918C152.687 45.0892 154.068 45.3136 155.452 45.251H155.45Z" fill="white"/>
<path d="M167.716 44.639H173.953V25.049H167.716V44.639ZM167.716 22.332H173.953V17.282H167.716V22.332Z" fill="white"/>
<path d="M176.659 51.105H182.896V42.611H182.973C183.61 43.4731 184.449 44.165 185.417 44.6255C186.384 45.086 187.45 45.3008 188.521 45.251C193.648 45.251 197.053 41.195 197.053 34.844C197.053 28.952 193.877 24.475 188.674 24.475C187.521 24.4492 186.378 24.7038 185.345 25.217C184.312 25.7301 183.419 26.4865 182.743 27.421H182.628V25.049H176.659V51.105ZM186.913 40.43C184.235 40.43 182.704 38.249 182.704 35.073C182.704 31.897 184.081 29.487 186.798 29.487C189.476 29.487 190.739 31.706 190.739 35.073C190.739 38.402 189.286 40.43 186.913 40.43Z" fill="white"/>
<path d="M207.207 45.251C212.334 45.251 216.122 43.032 216.122 38.751C216.122 33.739 212.066 32.859 208.622 32.285C206.135 31.826 203.916 31.635 203.916 30.257C203.916 29.033 205.102 28.457 206.633 28.457C208.355 28.457 209.541 28.993 209.77 30.757H215.509C215.203 26.893 212.218 24.482 206.67 24.482C202.04 24.482 198.214 26.625 198.214 30.757C198.214 35.348 201.849 36.267 205.254 36.841C207.854 37.3 210.228 37.491 210.228 39.252C210.228 40.515 209.042 41.203 207.167 41.203C205.101 41.203 203.8 40.246 203.567 38.295H197.675C197.871 42.611 201.468 45.251 207.207 45.251Z" fill="white"/>
<path d="M224.594 45.213C225.744 45.2603 226.887 45.0106 227.912 44.4879C228.937 43.9652 229.811 43.1873 230.448 42.229H230.563V44.639H236.532V25.049H230.295V35.992C230.295 38.326 228.995 39.933 226.851 39.933C224.861 39.933 223.905 38.747 223.905 36.604V25.049H217.705V37.905C217.707 42.267 220.079 45.213 224.594 45.213Z" fill="white"/>
<path d="M239.243 44.639H245.48V33.658C245.48 31.324 246.628 29.679 248.58 29.679C250.455 29.679 251.335 30.903 251.335 33.008V44.639H257.572V33.658C257.572 31.324 258.682 29.679 260.672 29.679C262.547 29.679 263.427 30.903 263.427 33.008V44.639H269.664V31.898C269.664 27.498 267.445 24.475 263.006 24.475C261.766 24.4488 260.541 24.7542 259.458 25.3596C258.375 25.9651 257.473 26.8486 256.846 27.919H256.769C256.292 26.866 255.515 25.9773 254.534 25.3646C253.554 24.7518 252.415 24.4424 251.259 24.475C250.056 24.4355 248.866 24.729 247.819 25.3232C246.773 25.9173 245.911 26.789 245.328 27.842H245.213V25.049H239.243V44.639Z" fill="white"/>
<path fill-rule="evenodd" clip-rule="evenodd" d="M31.885 63.77C38.1913 63.77 44.3559 61.9 49.5994 58.3964C54.8428 54.8929 58.9296 49.9131 61.3429 44.0869C63.7562 38.2607 64.3876 31.8496 63.1573 25.6646C61.9271 19.4795 58.8903 13.7981 54.4311 9.33891C49.9719 4.87972 44.2905 1.84297 38.1055 0.612676C31.9204 -0.617614 25.5094 0.0138152 19.6831 2.42712C13.8569 4.84042 8.87716 8.9272 5.37359 14.1707C1.87002 19.4141 0 25.5788 0 31.885C0 40.3414 3.3593 48.4515 9.3389 54.4311C15.3185 60.4107 23.4286 63.77 31.885 63.77ZM41.832 14.853C42.316 13.133 40.647 12.116 39.123 13.202L17.845 28.362C16.192 29.54 16.452 31.886 18.236 31.886H23.836V31.842H34.756L25.856 34.982L21.938 48.917C21.454 50.637 23.123 51.654 24.647 50.568L45.926 35.409C47.579 34.231 47.319 31.885 45.535 31.885H37.035L41.832 14.853Z" fill="#F15757"/>
</svg>
