<svg width="435" height="109" viewBox="0 0 435 109" fill="none" xmlns="http://www.w3.org/2000/svg">
<path d="M58.8172 7.40765H65.0025C78.6752 7.40765 80.6285 15.709 86.3254 31.0094H91.2086V1.22236H0.382455V31.0094H5.26558C10.9626 15.709 12.9158 7.40765 26.5886 7.40765H32.7738V94.49C32.7738 99.2104 32.2855 102.14 27.2396 102.466L18.6128 103.117V108H72.9782V103.117L64.5141 102.466C59.4683 102.14 58.8172 99.2104 58.8172 94.49V7.40765ZM110.526 94.1645C110.526 101.977 109.387 102.629 98.9694 103.117V108H184.912L187.679 75.4458H182.796C177.099 91.3974 173.03 101.815 154.8 101.815C137.709 101.815 136.569 100.675 136.569 90.7463V55.9133H149.591C160.171 55.9133 161.962 59.3315 164.729 71.2138H169.612V34.7531H164.729C161.962 47.1237 159.846 49.2397 149.591 49.2397H136.569V12.9419C136.569 8.54705 137.709 7.40765 141.941 7.40765H152.358C167.984 7.40765 171.891 14.8951 176.937 30.0328H181.82V1.22236H98.6439V5.94271C109.061 6.5938 110.526 7.24488 110.526 15.0579V94.1645ZM301.188 108V103.28C293.538 103.117 291.584 101.977 289.143 96.1177C281.818 76.0969 265.541 25.8008 257.403 0.571279H238.033C228.755 29.5445 210.85 82.2822 204.828 95.7922C202.223 101.489 200.921 102.629 192.783 103.117V108H226.476V103.117L217.035 102.466C213.78 102.14 213.617 100.35 214.431 97.4199C216.222 89.1186 219.314 79.8407 222.407 69.4233H253.171C255.449 76.2597 259.519 88.6303 261.96 96.7688C262.937 99.8615 262.449 101.977 259.519 102.14L250.241 103.28V108H301.188ZM250.892 63.0753H224.523C227.616 52.9835 235.103 28.4051 237.382 20.7549H237.87C240.963 31.0094 248.125 53.9601 250.892 63.0753ZM339.805 108V103.117C330.365 102.14 325.97 103.768 324.83 92.2112C324.179 86.677 324.017 79.6779 324.017 68.935V17.1739H324.505C334.108 42.2406 348.595 82.7705 357.71 108.163H366.337C372.197 89.9324 388.311 41.5895 396.938 16.8484H397.426V94.1645C397.426 101.977 395.961 102.466 385.869 103.117V108H434.212V103.117C423.632 102.791 422.656 101.977 422.656 94.1645V15.0579C422.656 7.24488 423.632 6.43103 434.212 5.94271V1.22236H396.287C388.962 21.4059 380.01 48.2631 372.034 69.5861H371.546C366.825 57.5411 350.385 18.4761 343.875 1.22236H304.647V5.94271C315.064 6.43103 316.855 7.24488 316.855 14.8951V68.935C316.855 79.3523 316.529 86.8398 316.041 92.2112C315.064 103.117 312.785 101.815 303.182 103.117V108H339.805Z" fill="url(#paint0_linear_154_2)"/>
<defs>
<linearGradient id="paint0_linear_154_2" x1="7.85462" y1="71" x2="439" y2="71" gradientUnits="userSpaceOnUse">
<stop stop-color="#F1B958"/>
<stop offset="0.520833" stop-color="#E17979"/>
<stop offset="1" stop-color="#817EEF"/>
</linearGradient>
</defs>
</svg>
