<svg width="659" height="148" viewBox="0 0 659 148" fill="none" xmlns="http://www.w3.org/2000/svg">
<g filter="url(#filter0_d_1_846)">
<path d="M43.792 121.02H81.232V120.732C77.056 111.948 75.472 106.764 75.472 94.9562V70.4762L91.6 41.5322C97.936 30.3002 103.12 22.5242 111.76 15.9002V15.6122H81.808V15.9002C87.856 21.0842 93.472 30.7322 85.696 44.7002L74.32 65.0002L61.22 40.9522C55.172 29.4322 57.764 19.6402 62.084 16.0402V15.6082H16.292V16.0402C22.484 20.7922 26.084 26.8402 32.992 39.8002L49.692 70.4722V94.9522C49.692 106.904 47.964 111.944 43.792 120.728V121.02ZM140.848 123.18C162.016 123.18 179.584 106.044 179.584 86.0282C179.584 66.0122 162.016 48.5882 140.848 48.5882C119.68 48.5882 102.112 66.0122 102.112 86.0282C102.112 106.044 119.68 123.18 140.848 123.18ZM140.848 120.444C130.624 120.444 126.016 106.476 126.016 86.0282C126.016 65.5802 130.48 51.3282 140.848 51.3282C151.072 51.3282 155.68 65.5842 155.68 86.0282C155.68 106.472 151.072 120.444 140.848 120.444ZM234.16 107.196L234.592 107.34V123.04L264.256 116.56V116.272C259.072 111.088 257.056 107.2 257.056 91.0722V50.8922H228.4V51.1802C231.856 55.0682 233.872 58.8122 233.872 67.4522V104.172C231.572 108.204 228.112 111.228 223.36 111.228C216.88 111.228 214.144 106.328 214.144 100.428V50.8922H185.632V51.3242C188.944 55.3562 191.104 58.9562 191.104 67.5962V100.284C191.104 114.108 198.16 123.184 210.544 123.184C223.216 123.18 230.992 113.244 234.16 107.196ZM295.792 123.18C307.168 123.18 314.944 117.564 318.112 111.948L317.68 111.52C315.277 113.194 312.4 114.053 309.472 113.968C303.712 113.968 299.104 111.232 299.104 102.592V54.0602H316.24V50.8922H299.1V34.1922H297.52L267.856 52.7642V54.0642H275.92V103.164C275.92 117.564 284.128 123.18 295.792 123.18ZM354.544 121.02V120.732C352.244 113.676 351.088 107.632 351.088 95.6762V66.4442C353.968 62.7002 358.576 59.3882 363.904 59.3882C370.672 59.3882 373.696 63.9962 373.696 70.0442V95.8202C373.696 107.484 372.688 113.676 370.24 120.732V121.02H400.34V120.732C397.892 113.676 396.884 107.772 396.884 95.6762V68.6042C396.884 56.3642 387.956 48.5882 375.284 48.5882C362.468 48.5882 354.836 56.3642 351.092 62.4122V8.84424L320.7 17.1962V17.4842C325.884 23.5322 327.9 29.5842 327.9 40.3842V95.6842C327.9 107.924 326.6 113.684 324.444 120.74V121.02H354.544ZM412.864 121.02H444.976V120.732C442.24 115.116 440.512 109.644 440.512 98.4122V54.0602H456.928V50.8922H440.512V37.2122C440.512 21.6602 444.832 11.5802 449.872 11.5802C455.344 11.5802 461.536 22.8122 467.008 30.3002L467.872 30.0122L465.856 10.5722C461.854 9.55569 457.745 9.02388 453.616 8.98824C433.168 8.98824 417.328 24.3962 417.328 47.2882V50.8882H408.256V54.0562H417.328V98.4082C417.328 110.072 415.6 115.108 412.864 120.728V121.02ZM493.5 51.1802C499.116 51.1802 502.716 56.9402 502.716 70.4802V75.9522L482.268 76.2402C482.272 63.1322 486.016 51.1802 493.5 51.1802ZM525.04 100.428L524.32 99.9962C521.728 102.876 515.68 106.908 505.744 106.908C493.072 106.908 482.992 100.284 482.272 79.1162L525.184 79.2602C525.472 64.5722 514.528 48.5882 494.368 48.5882C474.352 48.5882 458.8 64.5722 458.8 87.1802C458.8 107.34 472.048 123.18 493.792 123.18C510.208 123.18 521.152 113.964 525.04 100.428ZM581.34 51.1802C575.532 49.5316 569.521 48.7076 563.484 48.7322C547.5 48.7322 533.964 54.9242 533.964 70.7642C533.964 85.8842 545.052 91.5002 554.988 95.9642C564.348 100.14 571.98 103.452 571.98 111.228C571.98 115.98 569.244 120.588 561.756 120.588C552.108 120.588 543.468 112.38 534.108 98.2682L532.808 98.5562L534.832 118.72C542.287 121.728 550.261 123.244 558.3 123.18C574.572 123.18 588.108 116.844 588.108 100.572C588.108 85.8842 577.884 79.9802 567.808 75.5162C558.308 71.4842 548.944 68.6042 548.944 60.5402C548.944 54.9242 553.552 51.3242 559.456 51.3242C566.8 51.3242 572.848 56.9402 581.92 69.4682L583.22 69.1802L581.34 51.1802ZM620.22 123.18C631.596 123.18 639.372 117.564 642.54 111.948L642.108 111.516C639.705 113.19 636.828 114.049 633.9 113.964C628.14 113.964 623.532 111.228 623.532 102.588V54.0602H640.668V50.8922H623.536V34.1922H621.952L592.288 52.7642V54.0642H600.352V103.164C600.352 117.564 608.56 123.18 620.224 123.18H620.22Z" fill="url(#paint0_linear_1_846)"/>
</g>
<defs>
<filter id="filter0_d_1_846" x="0.291992" y="0.844238" width="658.248" height="146.34" filterUnits="userSpaceOnUse" color-interpolation-filters="sRGB">
<feFlood flood-opacity="0" result="BackgroundImageFix"/>
<feColorMatrix in="SourceAlpha" type="matrix" values="0 0 0 0 0 0 0 0 0 0 0 0 0 0 0 0 0 0 127 0" result="hardAlpha"/>
<feOffset dy="8"/>
<feGaussianBlur stdDeviation="8"/>
<feColorMatrix type="matrix" values="0 0 0 0 1 0 0 0 0 1 0 0 0 0 1 0 0 0 0.22 0"/>
<feBlend mode="normal" in2="BackgroundImageFix" result="effect1_dropShadow_1_846"/>
<feBlend mode="normal" in="SourceGraphic" in2="effect1_dropShadow_1_846" result="shape"/>
</filter>
<linearGradient id="paint0_linear_1_846" x1="16.292" y1="75.8475" x2="639.486" y2="120.22" gradientUnits="userSpaceOnUse">
<stop stop-color="#F2BC56"/>
<stop offset="0.498" stop-color="#E17979"/>
<stop offset="1" stop-color="#787EFA"/>
</linearGradient>
</defs>
</svg>
